<svg xmlns="http://www.w3.org/2000/svg" viewBox="0 0 824.2519 1372.80883">
  <g id="Layer_2" data-name="Layer 2">
    <g id="Design_1_-_A4" data-name="Design 1 - A4">
      <path d="M.96182,676.21691c-.28735-1.26828-.61233-2.52966-.85273-3.80665-.29993-1.59349-.09776-2.95384,2.109-3.40656.88467,1.23573,1.7985,2.51248,2.67688,3.73938,1.88416-.3102,2.60525-1.03841,1.85282-2.72057-.6733-1.50614-1.287-3.03877-2.07387-4.909-.99574.35666-2.3052.82572-3.52489,1.26259-1.75834-1.34377.7932-4.04173,3.27843-3.74072.47731.05784.95642.0997,1.863.1931V658.255c-1.3483.20458-2.56871.38969-4.47925.67957C1.76821,643.49109,3.46,628.49373,5.98056,612.94c1.81992.82826,3.18177,1.44806,4.87126,2.21692.43568-1.99872.75606-3.92552,1.28926-5.79153.58352-2.04179.98025-4.293,2.14658-5.97621,1.80141-2.59983,1.18122-4.53014-.71371-6.40474.93427-2.37674,1.81677-4.62154,2.92612-7.44345-1.56282-.20095-3.10978-.80261-3.48945-.37293-1.11769,1.26525-2.49733,2.95123-2.47277,4.45132.073,4.49058.5966,8.9419-.65455,13.38887-.32715,1.16272.1055,2.53928.22552,4.3745-1.04933-.37759-2.17574-.49271-2.26745-.86377-.54058-2.18516-1.33572-4.47776-1.12653-6.64562.59744-6.19326,1.77358-12.32905,2.44773-18.51728.391-3.59.46931-7.16483,2.57585-10.32361a2.61432,2.61432,0,0,0,.267-2.25684c-2.086-3.4523-.41028-5.534,2.35638-7.40686a16.08036,16.08036,0,0,0,2.20877-2.36119c-1.54224-.6186-2.67071-1.07114-4.45276-1.78585,1.29289-3.15691,2.50653-6.12049,3.91484-9.55959-3.92294-3.04609,1.24788-6.51145-.195-10.30456h3.96094c-.06352-.4451-.00569-.89559-.1591-.98536-1.90485-1.115-2.60986-2.43584-2.16425-4.86859,1.03167-5.63213,1.57878-11.3518,4.095-16.61354a3.33653,3.33653,0,0,0,.29533-1.43626c-.07779-6.09091,1.67279-11.80664,3.37983-17.5652,1.381-4.65839,2.35093-9.43764,3.55163-14.151.563-2.20942,1.23155-4.39216,1.867-6.58271.681-2.34758,1.56487-4.655,2.01652-7.04486.43048-2.27742,3.15806-4.01609,1.58677-6.73878,3.37814-6.11159,2.959-13.34217,5.82768-19.64111,1.21255-2.66238,1.50062-5.7294,2.45946-8.52656,3.52937-10.296,5.88031-20.99777,9.64318-31.15116,3.55623-9.59649,6.44968-19.46549,10.9149-28.77174,3.16338-6.59293,5.03822-13.79411,7.69308-20.64438,1.77382-4.5763,3.90335-9.01491,5.88285-13.51112a37.98217,37.98217,0,0,1,1.66348-3.584c1.08454-1.898,2.2879-3.72813,3.251-5.28012,1.08491-3.76347,1.77442-7.4832,3.20355-10.893,8.29451-19.791,18.62008-38.54711,29.829-56.80228,10.57389-17.22094,21.54825-34.20051,33.29954-50.6475,4.87683-6.8254,10.31516-13.24962,15.501-19.854,5.17518-6.59106,10.268-13.24962,15.56946-19.7376,2.48542-3.04167,5.42255-5.70992,8.075-8.62026,7.77305-8.52887,15.9043-16.77163,23.15849-25.7234,10.12533-12.49455,22.44448-22.66112,34.12548-33.48978,6.38066-5.915,13.61858-10.91661,20.55905-16.21328,7.05063-5.38076,14.1865-10.651,21.33507-15.90148,2.88547-2.11929,5.45836-4.91336,9.492-4.87014a1.54808,1.54808,0,0,0,1.20971-.71381c1.75543-4.64314,6.4766-5.93571,9.933-8.49968a127.04515,127.04515,0,0,1,27.52753-15.2739c13.07262-5.38623,25.81844-11.56234,38.7449-17.30843,6.31187-2.80579,12.69483-5.45592,19.09508-8.05476a18.04387,18.04387,0,0,1,3.90879-.54782c7.32407-1.15428,14.67445-2.17052,21.9592-3.53607,7.28456-1.36549,14.43259-3.705,21.763-4.5326,20.03426-2.2618,40.13415-3.14109,60.22872-.35551,3.25533.45124,6.55676.58644,9.80168,1.09328,20.01218,3.12575,39.79182,7.29261,58.94268,14.0068,18.08621,6.34094,35.22031,14.702,51.98907,24.00063,8.00116,4.43677,14.81544,10.43948,22.66426,14.96221A89.09935,89.09935,0,0,1,661.06529,80.326a8.541,8.541,0,0,0,1.8867,1.59491c4.63234,2.36933,7.986,6.15968,11.57856,9.79351,8.79816,8.89911,17.77222,17.585,25.81835,27.23222a398.03448,398.03448,0,0,1,34.8264,49.09457,213.14758,213.14758,0,0,1,12.91623,23.82524c5.58685,12.6326,13.38486,24.27639,17.01175,37.78316.03315.1234.24482.19878.96322.74629.56233-1.58677,1.1879-2.97319,1.54642-4.42549,2.20654-8.93894,4.27841-17.91164,6.53679-26.83721,3.26985-12.9232,6.75016-25.79341,9.97082-38.72859,2.62734-10.55187,5.24391-21.11663,7.43777-31.76372,3.156-15.3164,5.88783-30.71972,8.87024-46.07245,2.0178-10.38682,2.20935-20.91171,2.6009-31.42678.362-9.724,1.05651-19.44935.99217-29.17006-.03515-5.31657.28605-10.37738,2.06988-15.41028.88313-2.49171,1.11455-5.315,3.99079-6.34878,2.46312-.88531,7.608,1.12648,9.22042,3.60316,2.01111,3.08913,3.91756,6.04233,4.14575,10.15547.57557,10.37638,1.39137,20.68653.16418,31.09556-.68867,5.84146-.26122,11.80518-.64753,17.6934a323.65447,323.65447,0,0,1-6.21527,45.03754c-3.60783,17.2648-7.33477,34.50826-11.31159,51.69121-3.2363,13.98351-6.87925,27.87368-10.4117,41.78756-3.522,13.87287-7.28072,27.68731-10.65169,41.59623-2.43729,10.0566-4.43231,20.221-6.56226,30.35048a9.6516,9.6516,0,0,0-.16,3.88862c1.73038,8.02829,3.96012,15.96608,5.32505,24.052,2.11229,12.51313,3.86784,25.09672,5.36635,37.699.75491,6.349.66423,12.80325.8631,19.21277.34264,11.04171.7224,22.084.88525,33.12912a175.75062,175.75062,0,0,1-3.96511,40.28222c-.70274,3.21226-1.04979,6.50709-1.84136,9.69418-2.14728,8.6458-8.16948,14.62213-14.714,19.96335-3.99851,3.26332-8.98855,2.61339-13.77094,1.46059a63.76907,63.76907,0,0,0-6.68309-1.40439,11.62233,11.62233,0,0,1-8.50362-5.07663c-6.66011-8.99441-6.99776-19.3332-7.17017-29.71512-.34848-20.98513,1.74578-41.83161,4.33376-62.6142,1.221-9.80513,2.9672-19.56023,4.8614-29.26265,2.67939-13.72442,5.75027-27.372,8.583-41.067,1.121-5.4195.41895-10.9543-.8338-16.12009-2.75607-11.36523-6.17939-22.57844-9.60786-33.76865a288.53076,288.53076,0,0,0-26.41267-60.16524,311.22141,311.22141,0,0,0-39.127-53.3551c-5.19974-5.72311-10.83807-11.052-16.36009-16.47543-1.6002-1.57162-3.18758-3.6178-5.38927-2.46188-1.84379-2.22224-3.18767-4.51233-5.12189-6.06886A321.44068,321.44068,0,0,0,590.42958,67.393c-11.02125-5.49612-22.37921-10.47929-34.48506-13.45959-5.90783-1.45444-11.52856-4.18688-17.47286-5.35822-11.7902-2.3233-23.39026-5.887-35.50972-6.29383-10.71587-.35977-21.43761-.56732-32.15844-.73818-2.58045-.04114-5.33453-.05732-6.614,3.577-2.31876-3.91152-5.65793-3.17358-8.62289-2.80621-7.35861.91177-14.67311,2.176-22.00952,3.27048-13.747,2.05093-27.0783,5.91122-40.3379,9.85707-11.82056,3.51762-23.74469,7.191-34.85341,12.4281-7.98437,3.76413-16.4643,6.59846-24.014,11.22077-11.52529,7.05633-22.85052,14.43935-34.25512,21.69261-2.62056,1.66659-5.58128,3.0166-6.03306,5.88983-2.619,1.36715-4.98783,2.15588-6.80526,3.62609-10.75828,8.70268-21.53785,17.3907-32.01447,26.42655-8.2293,7.09759-16.39854,14.33666-23.93222,22.1513-9.943,10.31374-19.49114,21.038-28.74607,31.97741C191.9228,203.43391,181.625,216.31609,171.4917,229.312c-5.65975,7.25858-10.85029,14.90245-15.95,22.57365-7.01736,10.55554-14.11644,21.08651-20.50218,32.02405-6.81271,11.66914-12.954,23.73819-19.16689,35.7473q-8.05533,15.57043-15.56487,31.42076c-2.28136,4.82432-3.89366,9.965-6.0976,15.71413,2.3052,0,3.89355-.10574,5.46314.0216,3.44225.27929,4.49885,1.80848,4.27369,5.35084-.07767,1.22128.55014,2.48055.809,3.73207.21561,1.04234.36321,2.09872.54095,3.14893a34.21938,34.21938,0,0,1-3.61322.47831c-4.11072.12249-7.43719-1.62228-10.52822-5.32477-1.37,3.02352-2.63719,5.44115-3.58611,7.978-5.17978,13.849-10.09846,27.79843-15.46118,41.57542-5.28879,13.58716-8.61114,27.73787-12.60233,41.69767-4.60314,16.09941-9.23085,32.19621-13.47938,48.39078-1.94635,7.41937-2.92079,15.08912-4.50756,22.6091-1.14613,5.43069-2.71257,10.77324-3.8408,16.20714-1.1356,5.47068-2.07229,10.98927-2.888,16.51753-.66169,4.48387-.52485,4.50407-5.44705,6.03931,1.56318.32938,2.66031.56052,4.76588,1.00417-1.93,1.47528-3.10893,2.37637-4.51325,3.44975.94468.41244,1.75664.767,3.20028,1.39725l-4.6951,2.5852.04319.4474c1.11165-.216,2.22318-.432,3.92271-.76233-.85975,6.48253-1.60359,12.47054-2.45947,18.44252-.97311,6.79062-1.97962,13.578-3.10094,20.3453-.68952,4.161-1.64231,8.2777-2.43587,12.42214a16.3514,16.3514,0,0,0-.05,7.1615,21.03015,21.03015,0,0,1-.48493,11.15217c-1.2146,3.47165-.61692,6.75964-.96186,10.10481-.38752,3.75826-.54638,7.54531-.67475,11.32427-.35051,10.316-.23073,20.66778-1.0808,30.94045-.58413,7.059.23557,14.03735-.07368,21.0478-.16636,3.77012.07393,7.59359-.49763,11.29608-.30815,1.9937-1.94223,3.78258-3.16289,5.9995,1.1886.32109,2.37308.641,3.79192,1.02425.22951,3.32369.94081,6.786.56138,10.12435-.354,3.11717,1.72579,7.08074-2.57283,9.09525,4.52487,4.37529,4.61694,5.4639.91928,10.06349,2.5761,4.89177,2.61554,10.25767,2.87179,15.70791.22008,4.68585,1.58472,9.31822,2.44955,13.973a11.78486,11.78486,0,0,0,.42636,1.92656c.95448,2.59245-1.8567,4.9433-.00242,7.92509,1.34044,2.15558,1.08951,5.32259,1.466,8.04982.37906,2.74478.53066,5.52524,1.00119,8.25211,1.42234,8.24292,3.37281,16.42,4.30733,24.714a187.304,187.304,0,0,0,3.02387,20.42763c.66048,2.92734.68541,5.87936,2.15591,8.72625.91576,1.77279.74613,4.1955.75545,6.32773a26.38482,26.38482,0,0,0,2.53375,11.08206c.72085,1.566,1.67122,3.12358.48408,5.088-.4139.68514.23569,2.10513.5707,3.13387,1.11455,3.424,2.49359,6.77222,3.43294,10.241q3.78975,13.998,7.26793,28.07978c1.09737,4.44473,1.82984,8.9785,2.78819,13.45892.374,1.748.92218,3.45846,1.37855,5.18927.53925,2.04633,1.07475,4.09351,1.59306,6.14516a17.46453,17.46453,0,0,0,.8162,3.33724c2.73084,5.641,3.8489,11.77288,5.69011,17.68781,3.37075,10.82848,7.25316,21.5096,11.2631,32.12332,3.19242,8.44956,6.93231,16.691,10.35532,25.05517,3.05994,7.4766,5.85236,15.0668,9.0628,22.47686,4.38222,10.11479,8.74025,20.26079,13.67321,30.11063,5.96584,11.912,12.13241,23.759,18.919,35.21544q13.22471,22.32437,27.61216,43.95488a607.4312,607.4312,0,0,0,42.126,55.47611c11.81342,14.00287,25.17206,26.5434,39.23473,38.25833a438.851,438.851,0,0,0,55.07108,39.05271c13.04128,7.83241,26.47923,14.79761,40.16429,21.34,3.70026,1.76891,7.76882,2.74973,11.59594,4.27414,11.29825,4.50038,23.05747,7.58778,34.71306,10.88255,8.204,2.31891,16.8113,3.27,25.2769,4.58507,6.34877.98615,12.74758,1.69512,19.14517,2.30706,4.09578.39175,8.23058.366,12.34571.57129a14.42036,14.42036,0,0,1,2.42517.69759c-7.41832,2.72215-14.35692-.24414-20.9813,1.8922h26.97c-.25571-1.10616-.42443-1.83594-.70325-3.042,4.1285-.47511,8.16518-.96764,12.20839-1.39943,8.99638-.96086,18.03244-1.63111,26.98725-2.885,23.16037-3.24311,45.34128-10.08273,66.80781-19.21064,10.29525-4.37771,20.66806-8.75,30.423-14.17273,10.618-5.90235,20.73509-12.76738,30.74269-19.68685,8.25562-5.708,15.87738-12.3259,24.05276-18.1582,20.57553-14.67844,37.38172-33.24218,54.10566-51.90562,1.30259-1.45363,3.53045-2.79341,2.07925-5.1745,1.35828-.89057,3.0782-1.48521,3.97754-2.69167a292.50741,292.50741,0,0,0,21.60806-32.46946c3.39353-6.10415,7.42385-11.85636,10.77676-17.98083,3.47211-6.34225,6.60433-12.88159,9.64666-19.44524,4.09575-8.83634,6.54538-18.24761,9.19954-27.58108,3.05564-10.74524,6.17486-21.47233,9.255-32.21055,2.08573-7.27153,4.46335-14.47676,6.16091-21.83843a373.36393,373.36393,0,0,0,7.67651-44.67728c1.90527-18.04109,2.338-36.14545,2.76874-54.26977.27927-11.74942-1.272-23.32642-1.79233-34.99042-.20369-4.56559-.066-9.14546-.21954-13.71432-.05411-1.60957-.58262-3.19725-.77566-4.80913-1.1173-9.32875-2.10157-18.67468-3.32344-27.9894-.98068-7.476-2.08286-14.94328-3.40436-22.36568-1.84741-10.37672-3.56757-20.79966-6.02785-31.03821-4.04406-16.82919-8.64264-33.52517-12.99906-50.27935-2.901-11.15707-7.35207-21.8181-10.57737-32.86266-5.70456-19.5344-13.70333-38.18259-22.24681-56.55311a437.61156,437.61156,0,0,0-26.93871-49.49664,388.06676,388.06676,0,0,0-22.35706-31.9877c-7.27955-9.29106-14.47948-18.679-22.315-27.49034-7.66443-8.61893-15.97544-16.67747-24.21122-24.76964-7.16055-7.03585-14.69017-13.69478-21.91473-20.6673-7.966-7.6882-16.93458-14.13492-26.02908-20.28251a346.44374,346.44374,0,0,0-51.73675-29.1863c-7.04446-3.17034-14.48752-5.49306-21.40126-8.90633-8.95911-4.42313-18.552-6.82105-28.027-9.4625a261.14078,261.14078,0,0,0-33.24123-6.887c-14.27833-2.04023-28.62762-1.43059-42.91206-2.52779-2.76333-.21233-5.58183.39441-8.37952.51424a250.36876,250.36876,0,0,0-51.75774,7.71355,222.61373,222.61373,0,0,0-28.13762,9.3864c-10.98749,4.45961-21.77075,9.5014-32.33871,14.88715-7.02837,3.58186-13.47975,8.28278-20.27116,12.3461-8.363,5.00356-15.63474,11.35942-22.70225,17.97618-10.20548,9.55469-20.10286,19.40761-28.6108,30.5504-4.37865,5.73461-8.12423,12.07008-13.12966,17.18029-7.02522,7.17232-12.187,15.52824-17.11437,24.02389-7.67651,13.23583-14.79568,26.79625-22.07232,40.26165-2.10932,3.90326-3.97122,7.94154-5.90959,11.93579a261.27636,261.27636,0,0,0-15.50818,41.08615c-2.99441,10.26614-6.11018,20.512-8.61175,30.90174-2.00079,8.30934-3.26791,16.80354-4.65759,25.24911-1.25744,7.64247-2.5646,15.301-3.26114,23.00556-.84571,9.35876-.80857,18.79688-1.6377,28.15782-1.00917,11.39456-.04066,22.69318.73416,34.02326.46508,6.801.54614,13.63846,1.275,20.40839.80954,7.52028,1.92022,15.02748,3.32236,22.46077a402.93018,402.93018,0,0,0,13.4043,50.38339c2.89848,8.86829,7.25045,17.26244,10.96257,25.86371,6.54871,15.174,15.47758,28.9528,24.626,42.64486,8.47915,12.69043,19.05329,23.5114,29.42077,34.54918,5.9777,6.36415,11.788,12.88558,19.10343,17.84183a20.469,20.469,0,0,1,4.97234,4.77671c3.89282,5.33687,9.60066,8.50835,14.72533,12.23576a293.75412,293.75412,0,0,0,25.74143,16.69236c10.11806,5.84936,20.5602,11.15937,31.00838,16.41154a231.17566,231.17566,0,0,0,42.07228,15.83046c11.41585,3.17282,23.19878,5.12975,34.90277,7.13664,18.28676,3.13567,36.773,3.76165,55.27744,2.982,21.98012-.92589,43.70532-3.8121,64.89376-9.94541,26.98568-7.81148,53.487-17.04018,78.3049-30.31751,16.528-8.84227,32.93876-18.04435,47.32779-30.32573,5.25964-4.48937,10.98151-8.47182,15.97623-13.22784,6.0751-5.78463,11.82274-11.95339,17.31788-18.29734a136.01035,136.01035,0,0,0,18.56854-28.48229,94.65681,94.65681,0,0,0,7.4162-21.88162c1.06128-4.78421,3.184-9.30528,2.37737-14.45668a79.43034,79.43034,0,0,0-8.55816-25.71271c-2.50383-4.63081-5.21916-9.15793-8.05668-13.59261a20.94331,20.94331,0,0,0-4.56434-5.1606c-12.06928-9.461-23.91329-19.26412-36.50425-27.98323A108.86293,108.86293,0,0,0,587.673,874.84648c-15.10711-5.72825-30.31826-11.42868-46.31077-14.25088-14.4517-2.55036-29.01164-4.4878-43.523-6.70061-5.02467-.76619-10.02811-1.72512-15.07692-2.25854a93.82559,93.82559,0,0,0-9.81166-.06811,10.71617,10.71617,0,0,1-1.96637-.00061c-14.56665-2.778-29.29409-1.92558-43.95862-1.68664-13.68458.22285-27.36849.99014-41.03232,1.8438-12.60451.78749-25.0968,2.68622-37.57009,4.64569-1.78961.28117-3.592.48515-5.39224.69312-5.35013.61787-10.70208,1.22013-16.532,1.883.478,1.3612.52255,2.50608,1.11044,2.98747,2.66078,2.1793,5.24632,4.6354,8.28284,6.13162a87.7036,87.7036,0,0,1,16.76066,10.22186c2.7447,2.21946,6.458,3.19846,9.58989,4.98964,9.31258,5.3255,18.6081,10.685,27.81167,16.196,19.95253,11.94722,39.90869,23.89118,59.72336,36.06427a202.33813,202.33813,0,0,1,18.996,13.28495c4.1178,3.23416,7.37839,7.35561,8.647,12.81153.98056,4.217-.19612,8.5-3.713,10.9053a3.07836,3.07836,0,0,1-1.3071.64872c-7.53931.64618-14.79538,3.85941-22.68664,1.43681-8.17021-2.50813-16.80567-3.60594-24.81-6.50231-3.65973-1.32429-7.88515-4.05007-8.37824-9.27467-.11543-1.22231-.96955-2.37493-1.53439-3.67611,1.02775-2.05674,2.11913-4.24087,3.3883-6.78082-1.55205-1.13508-2.90355-2.29738-4.41065-3.1998q-38.83519-23.25153-77.72252-46.4157c-9.05258-5.36784-18.40007-10.23868-27.448-15.6139-7.07362-4.20228-13.90412-8.81517-20.82063-13.27962-4.42215-2.85439-7.31735-7.10409-9.7142-11.59-2.41706-4.52373-.28475-9.61451,4.24489-11.87511,6.99431-3.49052,14.39327-5.08837,22.14262-5.93235,9.32994-1.016,18.57664-2.79087,27.86514-4.19913,2.27889-.34554,4.58161-.53149,6.871-.811,11.78946-1.43839,23.55885-3.0741,35.373-4.26773,10.1284-1.02341,20.32269-1.38092,30.46139-2.319,21.26078-1.96721,42.555-1.64019,63.83147-.85669a501.42315,501.42315,0,0,1,68.86486,7.47018,362.43023,362.43023,0,0,1,46.10575,11.1993c18.988,5.99405,37.06025,14.06118,52.982,26.19858,11.24707,8.57381,22.923,16.67941,32.698,27.05093a83.04969,83.04969,0,0,1,18.91887,32.667,127.624,127.624,0,0,1,3.77219,15.30913,55.286,55.286,0,0,1-2.42867,29.7138c-2.41957,6.47279-4.25921,13.17134-6.86292,19.56331a146.06783,146.06783,0,0,1-7.18544,14.06675c-10.39365,19.23327-24.39845,35.509-40.5702,50.11384a310.56645,310.56645,0,0,1-37.40464,28.3411c-6.588,4.35-13.70721,7.90791-20.654,11.69981-14.88424,8.12459-30.5649,14.52286-46.47966,20.20635-14.70754,5.25242-29.593,10.2267-44.73228,13.986a313.45744,313.45744,0,0,1-43.71985,7.958,322.75174,322.75174,0,0,1-44.95738,1.59191c-9.05142-.34-18.10279-1.22533-27.1008-2.30935-12.24523-1.47516-24.52319-2.93254-36.62892-5.23076a271.2085,271.2085,0,0,1-28.70215-7.51846,294.93148,294.93148,0,0,1-55.124-23.15777c-10.702-5.848-21.03551-12.378-31.44207-18.75272-2.2121-1.355-5.01-2.52833-4.054-6.41823.23744-.96618-2.03449-2.70448-3.357-3.85275-1.22447-1.06357-2.94257-1.59941-4.052-2.746-2.18494-2.25842-4.45251-3.30663-7.56471-1.26707-7.39739-6.87676-14.72061-13.51434-21.84456-20.3594-6.062-5.8248-12.08722-11.71045-17.78834-17.88356-11.64458-12.60828-22.37709-25.93581-30.898-40.92761-3.49071-6.14166-7.402-12.05308-10.70958-18.28789-6.395-12.0549-12.7134-24.22764-16.95769-37.20213-4.95837-15.15755-9.74869-30.45023-13.19651-45.99807-3.12732-14.10292-4.49813-28.60824-6.38193-42.97055a294.99691,294.99691,0,0,1-1.87387-55.33093,422.442,422.442,0,0,1,5.79258-49.39156c1.89856-10.73435,3.97776-21.3845,6.829-31.895,2.01023-7.41018,3.74159-14.90638,6.04292-22.22425,2.18869-6.96036,4.74869-13.80784,7.03587-20.745,1.63662-4.96351,4.22638-9.66037,5.43688-14.70512,1.61883-6.74725,5.53391-12.41071,7.82441-18.83674a119.64408,119.64408,0,0,1,8.82506-18.20146c3.94218-7.00433,8.43475-13.69726,12.62254-20.56555,4.0936-6.71385,8.0474-13.5133,12.16882-20.20979,3.185-5.17518,6.343-10.38652,9.883-15.31628,2.08439-2.90266,5.08171-5.13349,7.33332-7.93574,5.04693-6.28127,10.3653-12.34362,15.47582-18.54087,11.49231-13.93615,24.84623-25.792,38.79638-37.00057,7.276-5.84609,15.64792-10.30637,23.25613-15.767,8.08073-5.8,16.98685-9.98842,25.832-14.35517,11.267-5.56226,23.29485-9.09453,35.02171-13.44731a207.76646,207.76646,0,0,1,45.59529-11.10474c11.09626-1.44764,22.33033-1.90176,33.51582-2.58883,15.87339-.975,31.67019.43028,47.39482,2.332,10.63306,1.286,21.20047,3.18733,31.7423,5.114,3.6964.67558,7.21663,2.28709,10.83813,3.40384a379.69153,379.69153,0,0,1,73.03965,31.4296c7.768,4.32894,15.07359,9.50412,22.48688,14.44784,6.298,4.1998,12.59617,8.42682,18.61736,13.0059,5.36072,4.07675,10.421,8.56316,15.47455,13.02652A362.1903,362.1903,0,0,1,640.617,558.59081c2.56361,2.95117,5.94912,5.17312,8.79351,7.90059a84.16164,84.16164,0,0,1,7.04038,7.52493,176.41244,176.41244,0,0,0,14.96128,16.33582c4.34072,4.14329,7.60827,9.48028,11.0224,14.51136,9.26,13.64566,18.45865,27.33627,27.43261,41.17066,2.8519,4.39652,4.89773,9.31315,7.3525,13.97063,4.8349,9.17335,10.064,18.15995,14.467,27.53516a440.64878,440.64878,0,0,1,19.41376,48.06787c4.53156,13.60774,9.84485,26.95584,14.35562,40.57,2.952,8.90966,5.0881,18.08948,7.59345,27.14723,2.85748,10.33062,5.96436,20.60027,8.49971,31.00942a239.8739,239.8739,0,0,1,4.64858,24.25775c2.36494,17.31772,4.52968,34.6692,6.36472,52.05032,1.31605,12.46527,2.30544,24.98693,2.82527,37.509.6698,16.13509,1.47661,32.324.8668,48.43844a386.56145,386.56145,0,0,1-8.752,70.0977c-3.35233,14.94461-6.6537,29.91729-10.65154,44.69518-3.0043,11.105-6.88669,21.98906-10.74309,32.84173a232.55222,232.55222,0,0,1-9.4721,23.33718c-3.1253,6.46965-7.26615,12.44955-10.97633,18.635-.5081.84714-1.24075,1.57268-1.6705,2.45164-3.64282,7.45155-8.49869,14.09759-13.4609,20.69621-7.82789,10.40926-15.11884,21.252-23.39808,31.28345-8.06879,9.77627-17.01311,18.83983-25.74086,28.05739-3.0524,3.22363-6.656,5.91881-9.90869,8.96157-2.003,1.8738-4.27369,3.49451-4.87443,6.59789-.23923,1.2361-1.74769,2.33524-2.86411,3.27638-15.92266,13.424-32.44882,26.02231-50.73358,36.11327-12.27735,6.77561-24.43547,13.83688-37.08118,19.85852a310.6619,310.6619,0,0,1-55.09577,20.25559,286.359,286.359,0,0,1-39.376,7.1261c-12.72979,1.48388-25.55607,2.57165-38.4639,1.50832-7.3819-.60807-14.84776-.14264-22.24545-.62513-10.19483-.66481-20.39287-1.50855-30.53126-2.75106a201.5951,201.5951,0,0,1-36.63933-8.01656c-12.38788-3.94325-24.73849-8.0641-36.8778-12.70277-6.23589-2.38291-12.05159-5.92727-17.92234-9.18937-8.75663-4.86539-17.49143-9.78535-26.04608-14.99313-5.17185-3.14862-9.95-6.93773-14.97238-10.33982-3.64153-2.46663-7.46532-4.66758-11.06662-7.1889-1.864-1.30482-3.36416-3.1168-5.12666-4.58168-5.81637-4.83442-11.68742-9.603-17.51382-14.42547-1.3745-1.13773-2.6614-2.38182-3.97854-3.58815-1.21413-1.112-2.22844-2.683-3.65411-3.28062-5.59737-2.34686-9.66968-6.71488-13.80914-10.73169-8.959-8.6937-17.37171-17.95059-25.99163-26.99261a6.19183,6.19183,0,0,1-1.4506-1.98342c-3.10881-8.642-10.78616-13.96355-15.50479-21.42672-7.71759-5.0384-11.33619-13.45444-16.38487-20.56966-7.77336-10.95539-14.43822-22.69113-21.75436-33.9785-10.2217-15.77045-18.32058-32.73054-27.73424-48.93956a328.37146,328.37146,0,0,1-18.07491-36.81559c-2.83247-6.6712-5.34347-13.47815-8.11352-20.1767-2.19195-5.3007-4.88795-10.41374-6.7824-15.81292-5.25164-14.96615-10.25284-30.02134-15.24811-45.076q-3.46489-10.44309-6.527-21.01852c-3.40777-11.7534-7.78551-23.267-9.11833-36.26414,1.02272.74091,2.03153,1.07906,2.23963,1.68991a43.37893,43.37893,0,0,1,2.39026,8.50872,25.76205,25.76205,0,0,0,3.24806,9.11933c1.25514,2.3719.82176,5.59142,1.3961,8.38157a70.39725,70.39725,0,0,0,2.40151,9.00765c.72726,2.08336,1.55507,4.434,5.35581,3.90079-3.07844,4.30644-1.70352,7.75656-.32921,11.5568,2.67168,7.38756,4.65215,15.02337,7.05874,22.51134.27259.84847,1.44316,1.40851,2.1974,2.10223.52086-.8746,1.57395-1.824,1.46349-2.60988a39.56364,39.56364,0,0,0-1.77261-7.18865c-1.316-3.86727-3.44492-7.4633-3.51243-11.73356a3.78036,3.78036,0,0,0-1.23373-2.63819c-3.18866-2.4128-2.96072-5.96454-3.33288-9.29633a25.80242,25.80242,0,0,0-2.813-9.86532c-1.03107-1.88095-.88443-4.38194-1.42-6.56668-.65709-2.68029-1.49785-5.315-2.21664-7.98086-1.7858-6.62233-3.73965-13.20715-5.27258-19.888-2.14392-9.34436-3.93226-18.76978-5.97165-28.13906-.25057-1.15056-1.11-2.1684-2.10206-4.02346-1.47825,3.35466-.80277,5.90961-.80385,8.38278-.00025.63444.51323,1.3128.397,1.89195-.14192.70655-.75533,1.90793-1.06615,1.8778-.84439-.0819-2.20987-.55205-2.35977-1.12987-1.31854-5.08522-2.424-10.226-3.5624-15.357-.06413-.289.21088-.63916.20072-.95674-.03908-1.21759-2.75214-2.26834-.63628-3.41322,1.13657-.61508,3.01456.14083,4.55826.27524.29775.026.59647.03872.89483.05638-.16261-3.19024-3.023-6.32555-.196-9.59613.11216-.12981-.14241-.57286-.2202-.87157-2.64712-10.15653-5.26629-20.3041-6.0503-30.84464-.216-2.90254-2.11162-5.76237.79006-8.12713-3.695-3.53517-5.08408-15.27272-2.70265-20.90407-3.8045-2.20591-4.47115-5.7199-3.28546-9.6427.44766-1.48085.01948-2.25019-.64329-3.50734-1.17287-2.2243-1.66263-4.80878-2.47048-7.34316,1.33754-1.6887,4.22566,1.37547,5.62708-1.78779-1.811-.39888-3.46174-.76256-5.59126-1.23162-.01319-4.73134-1.518-9.091-1.17154-14.03771.26968-3.84815-.88443-8.03386-.6208-12.134.10151-1.57957-.04682-3.21347-2.09177-3.2079a2.776,2.776,0,0,0-3.089,3.08522c.01439.5091.11518,1.01567.17616,1.52344l.07683-.03847c-2.43031.37118-3.341-1.02365-3.38237-3.12334C.39777,773.6951.4527,769.78669.4527,766.432c2.76121-1.74689,5.1269-3.24347,7.28172-4.60672-.6191-3.06817-1.80213-5.57509-1.37746-7.77108.42406-2.19369,2.45728-4.07621,4.09886-6.57224-1.70328-1.32515-3.29683-2.565-5.07839-3.951,1.10995-3.3745,3.69839.02274,5.89894-1.46464.14385-.92638.3718-2.39307.7194-4.63105-1.47353,1.451-2.14586,2.599-3.11668,2.9732-2.43115.93727-3.939-.33344-3.51388-2.83866.17785-1.04664,1.1644-1.84441.04211-3.1-.53671-.60044-.167-2.01088-.20786-3.05449q1.56547.16423,3.13107.32932c.31953.034.63858.07416,1.51115.17639.553-1.38321,1.1552-2.88923,1.75737-4.39524q-.38584-.25969-.77143-.51963c-1.41739.72687-2.83465,1.45387-4.80858,2.46627-2.81106-4.70872.463-9.78934-1.07475-14.32384,1.2728-.4572,2.39534-.86044,3.78647-1.36011-4.15113-2.95081-4.58984-3.78355-2.87821-8.241,1.22429-3.18806.07357-6.313.25142-9.44829.2352-4.14432-.97929-8.3149.077-12.61311a8.15352,8.15352,0,0,0-1.14347-5.63522C4.38532,676.80272,2.28,676.65851.82474,676.11ZM25.338,562.76406H22.16646l.13031.819q1.49306-.42783,2.986-.85578c.55909-1.0124,1.33149-2.05021-1.04365-3.51763C24.79531,560.96925,25.08326,561.88,25.338,562.76406ZM758.407,434.29447c.68108-.54382,1.31482-.78833,1.38956-1.1488,1.13615-5.476,2.998-10.94813,3.12962-16.45843.39745-16.63779.18028-33.29222.05971-49.93908-.03542-4.89636-.54669-9.78928-.83987-14.68377C757.49144,371.816,755.27087,427.78,758.407,434.29447ZM63.25879,1037.86428c1.802,5.28351,3.1335,9.62117,4.763,13.844,1.6469,4.26749,3.665,8.39028,5.38437,12.63175,2.5525,6.29628,4.78245,10.57961,6.30679,11.37569-.87753-3.19423-1.30934-6.36959-2.59848-9.14691-3.38781-7.298-7.00986-14.46358-8.743-22.41613a16.38181,16.38181,0,0,0-2.37538-4.857C65.65619,1038.74819,64.6976,1038.58486,63.25879,1037.86428Zm.75534-2.26592c-1.00687-4.25249-1.903-8.037-2.83211-11.96089-2.81239-.52665-3.646-.13272-2.99472,1.83315,1.06688,3.22013,2.49987,6.32169,3.85858,9.43813C62.16856,1035.1904,62.87429,1035.21762,64.01413,1035.59836Zm26.25811,65.38474c.47561,4.49046,3.66887,6.818,6.81156,9.82866C97.64664,1105.26547,94.109,1103.14364,90.27224,1100.9831ZM391.98967,1359.193q.0501-.40235.10024-.80491-6.65653-.86184-13.3132-1.72379l-.11494.93134ZM22.44583,545.21973c-3.26671.27433-4.43219,1.16478-4.141,3.23972a2.56357,2.56357,0,0,0,1.38943,1.57262c.324.15069,1.29822-.36084,1.48478-.78912A35.94566,35.94566,0,0,0,22.44583,545.21973Zm8.846-48.52434c.69593-2.7403,1.19731-4.71447,1.69869-6.68863C28.67784,493.6349,28.67784,493.6349,31.29181,496.69539ZM16.35222,582.48393l-1.12314.1871q-.466,2.05912-.93222,4.11813.51867.34807,1.03748.69608c.89072-.67811,2.36085-1.24819,2.51306-2.06411C18.0071,584.5648,16.90368,583.47291,16.35222,582.48393Zm-.3055,212.89836c-2.42558,1.45146-2.38142,2.9588-.89507,5.07555C16.791,798.02714,16.791,798.02714,16.04672,795.38229ZM28.1121,565.9027c-3.42169.47843-3.42169.47843-4.71131,3.0623C24.95417,567.95532,26.23084,567.12543,28.1121,565.9027ZM17.08408,606.663q.65443.42628,1.309.85246c.46883-.83752.96888-1.66136,1.35205-2.53644.03351-.07652-.70125-.48932-1.0791-.74593Q17.8751,605.44812,17.08408,606.663Zm2.4182-38.88284c-1.60588.64146-2.56472,1.02443-4.49147,1.79407C17.56211,570.35825,18.7011,570.42262,19.50228,567.7802Zm-.00447-8.7519a8.46249,8.46249,0,0,0-.91589-1.3298,7.10294,7.10294,0,0,0-1.80479,1.08535,2.38842,2.38842,0,0,0,.52485,1.05595A15.80931,15.80931,0,0,0,19.49781,559.0283Zm-2.91813,13.06124c-.78438.948-1.414,1.37541-1.459,1.8576-.04489.47892.49835,1.01288.78365,1.52277.44185-.40336,1.08986-.735,1.26239-1.232C17.31372,573.81484,16.91276,573.20157,16.57968,572.08954ZM6.76711,650.04675q-.03431-.58671-.06836-1.17336-1.38381.17858-2.7675.35708.02486.40815.04948.81628ZM21.8623,600.37094q.00072-.45423.00133-.90853H19.26841q-.00072.45423-.00133.90853Zm389.3328,760.98085q.07549-.49125.15093-.98239H406.3161l-.04683.54818Q408.7322,1361.13463,411.1951,1361.35179ZM20.57207,556.08825c.3009-.53547.70754-.9386.67451-1.30167a1.18314,1.18314,0,0,0-.91141-.73673c-.331.00369-.65673.47032-.98485.73437C19.63755,555.0908,19.92478,555.39731,20.57207,556.08825Zm7.879-55.63351a14.44149,14.44149,0,0,0,.58861-1.5953,2.02982,2.02982,0,0,0-.68576-.37185c-.32316.45188-.59031.94392-.87052,1.42659C27.72905,500.05138,27.97466,500.18863,28.45111,500.45474Zm14.2323-43.14834-.4888.00121v2.0274l.4888-.01022ZM23.76763,865.822a4.50034,4.50034,0,0,0,1.20687.58641c.1522.01852.54239-.45175.5021-.62524a3.3443,3.3443,0,0,0-.59454-.9559C24.58056,865.09635,24.27917,865.36554,23.76763,865.822Zm375.93043,494.21214q.02178-.31993.04362-.63977l-2.47217-.14735-.04138.6244Q398.46313,1359.95273,399.69806,1360.03415ZM7.35645,653.16241c-.31857-.333-.63689-.7489-.69678-.71454a6.34515,6.34515,0,0,0-.949.77775c.19988.2.45988.60057.588.5621A4.6934,4.6934,0,0,0,7.35645,653.16241Z"/>
    </g>
  </g>
</svg>
