<svg xmlns="http://www.w3.org/2000/svg" viewBox="0 0 111.69207 181.37875">
  <g id="Layer_2" data-name="Layer 2">
    <g id="Design_1_-_A4" data-name="Design 1 - A4">
      <g>
        <path d="M109.256,64.42429a30.6877,30.6877,0,0,1-.46939,7.31632,5.59272,5.59272,0,0,1-.401,1.41694c-.61851,1.34534-1.31872,2.65346-1.92387,4.00442a1.98193,1.98193,0,0,1-1.72958,1.35584c-.87883.0919-1.08761.33892-1.09994,1.19207a10.58019,10.58019,0,0,0,.699,4.72364,4.0092,4.0092,0,0,1,.02291,2.90746c-.20962.68649-.54175.85311-1.31605.81233-1.01688-.05353-1.39133.34523-.91,1.19773a2.79286,2.79286,0,0,1-.35623,3.12328A30.9942,30.9942,0,0,1,99.10311,96.619c-.88988,1.01052-1.47849,2.28032-2.31215,3.34809-.80893,1.03612-1.7777,1.94582-2.64478,2.93855a83.50234,83.50234,0,0,1-6.83634,6.79364c-2.19477,1.9938-4.50041,3.868-6.79571,5.74793-1.75159,1.4346-3.54444,2.82083-5.35284,4.18361-2.63008,1.982-5.20143,4.03678-7.97667,5.8322-2.48428,1.60719-4.83864,3.4192-7.21353,5.19017q-2.57418,1.91955-5.04537,3.97585c-1.42012,1.18639-2.79684,2.43079-4.12649,3.718q-2.88526,2.79307-5.6678,5.69167a13.18058,13.18058,0,0,0-3.01042,4.19311,5.02573,5.02573,0,0,0-.28561.81564c-.32114,1.56676.241,1.96309,1.595,2.41908a1.12043,1.12043,0,0,0,.89057-.25264,3.90012,3.90012,0,0,1,3.14147-.794,21.48992,21.48992,0,0,1,4.17141.453,2.018,2.018,0,0,0,1.3076-.1856,5.27559,5.27559,0,0,1,2.98566-.60021.9116.9116,0,0,0,.48831-.038,7.28585,7.28585,0,0,1,3.40976-.274c1.7322.02038,3.466-.03121,5.19694.02055a19.84233,19.84233,0,0,1,5.39474.49816,1.017,1.017,0,0,0,1.19773-.42735,2.48678,2.48678,0,0,1,1.91929-.96786c.73685-.09032,1.47278-.18867,2.2105-.27112a2.00047,2.00047,0,0,1,2.39242,1.25507,1.72774,1.72774,0,0,0,2.51015.74773c.49146-.24856.508-.6057.04988-.92859-.25312-.17838-.49632-.37081-.744-.55691a6.59912,6.59912,0,0,1,.96019-.44086,4.2359,4.2359,0,0,1,3.36681.06883,1.54518,1.54518,0,0,0,1.07185.01285,7.509,7.509,0,0,1,3.06469-.13449c.73629.07645,1.479.10707,2.21955.12174a1.48837,1.48837,0,0,0,1.51911-.85769,1.37508,1.37508,0,0,1,1.52447-.79774c.16444.01288.33022.01142.49405.02889a4.84833,4.84833,0,0,1,1.55836.20955c.55348.26987.2698.97759.44087,1.465a3.06307,3.06307,0,0,0,.58575,1.05074,1.2029,1.2029,0,0,0,2.01334-.81214c.01329-.16338-.006-.32925-.00772-.494-.01207-1.17944.56524-1.72644,1.73064-1.6566.42777.02563.56676.31519.59672.66015a3.85029,3.85029,0,0,0,1.02009,2.20805c.74049.859,1.3653.81606,1.943-.13457.40658-.66909.78566-1.35531,1.20533-2.01589.36347-.57214.50946-.56808,1.08507-.21a14.35025,14.35025,0,0,0,1.2981.6784,11.01663,11.01663,0,0,1,1.55541.746c1.16521.82154,2.00576,1.82957,1.66817,3.422-.14484.68322-.17814,1.39007-.26222,2.08619a4.4632,4.4632,0,0,0,.34469,2.53148,3.648,3.648,0,0,1,.231,1.55486c-.02293,1.8539-.13611,3.70737-.12822,5.56064a10.2512,10.2512,0,0,0,.38565,2.04073,5.65581,5.65581,0,0,1,.21518.70642,11.11524,11.11524,0,0,1-.51147,4.50593,1.38673,1.38673,0,0,1-1.48395,1.05406,17.46817,17.46817,0,0,0-5.26054.62647,7.45633,7.45633,0,0,1-1.35352.10464,4.064,4.064,0,0,0-1.10419.0943,12.37065,12.37065,0,0,1-4.16127.40864,8.76479,8.76479,0,0,0-1.60174.11007,29.96037,29.96037,0,0,1-5.29626.39132,34.44952,34.44952,0,0,0-3.43983.33256,41.88,41.88,0,0,1-7.02776.42831,22.95485,22.95485,0,0,0-5.4019.54218,15.38728,15.38728,0,0,1-2.2098.187c-1.23312.06821-2.46749.11394-3.70112.17353-.28812.01391-.5764.07419-.86294.06443a84.828,84.828,0,0,0-9.36212.69576c-1.55713.119-3.12717.06058-4.69025.115a15.025,15.025,0,0,0-1.70331.20808c-.93121.14035-1.85526.35933-2.791.43028-1.02563.07779-2.06124.03617-3.09232.02663a6.0395,6.0395,0,0,0-2.77261.486,3.59777,3.59777,0,0,1-1.32368.24978c-1.89257.11355-3.78716.19282-5.68034.297a4.70164,4.70164,0,0,0-1.22313.15769,18.19685,18.19685,0,0,1-5.76052.558,6.55426,6.55426,0,0,0-2.54558.39653,4.12227,4.12227,0,0,1-1.3277.24389c-2.38453.13976-4.77255.22607-7.15489.39416-.8965.06325-1.77548.36409-2.67219.43732-1.51869.124-3.049.10719-4.5671.23632-1.3121.11157-2.60966.39168-3.92153.50907a32.46572,32.46572,0,0,1-3.94406.15926c-1.37568-.045-1.99334-.817-1.93-2.18788.11414-2.46955.19917-4.94171.38531-7.406a24.65407,24.65407,0,0,1,.58575-2.77524,9.15062,9.15062,0,0,0,.33891-2.30213c-.12107-1.73678.83894-2.96713,1.74358-4.24373a.73882.73882,0,0,1,.99724-.227,1.555,1.555,0,0,0,1.61717-.182,11.92457,11.92457,0,0,1,1.932-.819,1.44638,1.44638,0,0,0,1.11324-1.45479,2.16375,2.16375,0,0,1,.96914-2.00852c.48264-.31973.40806-.83233.31214-1.34915a1.23313,1.23313,0,0,1,.12318-.90126c.29846-.35868.75226-.21267,1.14857-.0614a.27467.27467,0,0,1,.10945.05562c.90407,1.03265,2.09405.73016,3.224.6842a2.7433,2.7433,0,0,0,2.14355-1.0843,21.71841,21.71841,0,0,1,3.35377-3.07979,4.32176,4.32176,0,0,0,1.49642-2.19916,6.04828,6.04828,0,0,1,.31382-.937,5.44818,5.44818,0,0,0,.49815-3.00255,5.96383,5.96383,0,0,1,.15318-1.956.92192.92192,0,0,1,.64614-.59737c.23972-.00847.55812.29145.7206.53693a4.2115,4.2115,0,0,1,.30315.93458,2.00583,2.00583,0,0,0,1.19,1.34049c.7356.26747,1.27128-.07462,1.2255-.84528a11.2849,11.2849,0,0,0-.3347-2.193,2.16975,2.16975,0,0,1,.35242-2.19547,2.11132,2.11132,0,0,0,.36737-1.142,5.85306,5.85306,0,0,0-.07859-1.47728,2.70721,2.70721,0,0,1,.498-2.2119,4.8944,4.8944,0,0,0,.81886-2.68734c.05005-.74819-.1959-1.15489-.68656-1.30613a1.28459,1.28459,0,0,0-1.53195.73117c-.16739.32959-.24787.70918-.44472,1.01684a1.0962,1.0962,0,0,1-2.0295-.0586c-.2842-.50129-.53557-1.02461-.85723-1.50052a1.94979,1.94979,0,0,1,.803-3.04694,5.29588,5.29588,0,0,1,1.18571-.33813,1.48606,1.48606,0,0,0,1.39175-1.34266,1.07719,1.07719,0,0,1,.94352-.99477c.62439-.13729.808-.58669.85193-1.19219.08416-1.15975.20492-1.30416,1.36253-1.53842a3.53418,3.53418,0,0,0,1.91927-1.04285c.39957-.41674.8433-.797,1.20213-1.24567a5.66431,5.66431,0,0,1,2.55133-1.87815,3.814,3.814,0,0,0,1.19755-.84644,8.56435,8.56435,0,0,1,3.16924-2.09439,2.10015,2.10015,0,0,0,1.02656-.82746,5.6524,5.6524,0,0,1,2.34409-1.9508c.44143-.22374.90106-.41463,1.32871-.66151a3.03887,3.03887,0,0,0,1.09954-.7775c.8516-1.35576,2.262-2.13395,3.2788-3.31048a8.80251,8.80251,0,0,1,.82946-.73045c.2732-.24485.54713-.48986.806-.7495.43024-.43153.84564-.87779,1.2727-1.31256,1.37915-1.404,2.84083-2.73775,4.10942-4.2352a10.142,10.142,0,0,1,2.33712-1.9662,6.74738,6.74738,0,0,0,1.31535-1.08586,29.19133,29.19133,0,0,1,2.78508-3.1226,5.796,5.796,0,0,0,2.18089-3.13252c.11029-.42559.60771-.76077.95209-1.11378A12.08633,12.08633,0,0,0,68.82583,89.159a9.05665,9.05665,0,0,1,1.706-1.90736.84371.84371,0,0,1,.68757-.05963c.3518.10266.66718.32337,1.01322.45376.8867.33412,1.27.18389,1.713-.64.09754-.18146.18069-.37067.27108-.556.52206-1.07064.52213-1.0706-.56314-1.58808-.56343-.26866-.64278-.66276-.131-1.01233a18.24091,18.24091,0,0,1,1.73207-.95005c.996-.53159,1.20005-.90252.86522-1.99371a3.26843,3.26843,0,0,1,.19325-2.2653,24.188,24.188,0,0,0,1.90252-5.725,4.75206,4.75206,0,0,1,.75262-2.202,2.18668,2.18668,0,0,0,.19959-1.06361,23.86458,23.86458,0,0,0,.07736-2.586c-.081-1.55966-.2344-3.11575-.37115-4.67213a4.75079,4.75079,0,0,1-.16135-1.09141,6.51029,6.51029,0,0,0-.73031-3.45793,14.38414,14.38414,0,0,1-1.21358-3.49081,1.80522,1.80522,0,0,0-.32891-.79093,28.95769,28.95769,0,0,0-5.19112-5.93123,17.5737,17.5737,0,0,0-1.6413-1.09506,16.91283,16.91283,0,0,1-1.65536-1.07168,3.38721,3.38721,0,0,0-2.16393-1.06235.48614.48614,0,0,1-.34522-.10974c-.59675-.78253-1.40364-.6021-2.22784-.60313a9.93689,9.93689,0,0,1-2.04262-.43166,10.54631,10.54631,0,0,0-1.91327-.39237c-1.7721-.051-3.54683-.01318-5.32048-.00445a2.63657,2.63657,0,0,0-.73733.06236c-3.4649,1.04459-6.99046,1.9638-10.02367,4.051a17.76383,17.76383,0,0,0-4.63785,4.75922,28.806,28.806,0,0,0-1.75642,3.67189,36.93871,36.93871,0,0,0-2.49872,7.85667,3.39842,3.39842,0,0,1-.13939.72592,9.36419,9.36419,0,0,0-.642,3.99205c-.02691.86316-.19344,1.72106-.2531,2.58437A21.28662,21.28662,0,0,0,33.194,72.895c.04044.98851-.19374,1.49219-1.10541,1.82269a4.37794,4.37794,0,0,1-1.44985.24629c-4.04612.01493-8.07322.32777-12.096.722a.66031.66031,0,0,1-.12318.00976,45.30726,45.30726,0,0,0-7.371.32571c-.69864.04842-1.39536.13392-2.09458.16178a6.12766,6.12766,0,0,1-1.59268-.05341c-1.29518-.29766-1.65154-.83016-1.78175-2.15857-.07112-.72557-.30123-1.43469-.44477-2.15418-.4532-2.27153-.67523-4.5087,1.09786-6.39529.292-.31065.40909-.60574.13349-.98143a1.46885,1.46885,0,0,1-.24034-.42793,1.1257,1.1257,0,0,1,1.16083-1.4746,3.00126,3.00126,0,0,1,.36393.0685c1.5785.29373,1.89177-.0234,1.54354-1.5681a4.86876,4.86876,0,0,0-.194-.71563,1.0307,1.0307,0,0,0-1.37038-.70831c-.08.01769-.156.05335-.235.07674-1.117.33081-1.43966.09381-1.27266-1.04062a8.64035,8.64035,0,0,1,.50168-1.37486,3.38691,3.38691,0,0,0,.37043-1.3904,4.73331,4.73331,0,0,1,.85462-3.15738,6.23232,6.23232,0,0,0,.85606-2.417,3.297,3.297,0,0,1,.90328-1.98438,2.7454,2.7454,0,0,0,.62289-1.04794,3.33261,3.33261,0,0,1,1.29357-1.76218,3.53352,3.53352,0,0,0,1.30424-1.89989c.17946-.54883.37162-1.0935.5505-1.64251a6.62589,6.62589,0,0,1,1.85744-2.8485A10.4681,10.4681,0,0,0,18.17272,35.2a5.87689,5.87689,0,0,1,1.06859-1.48151c.20486-.255.51955-.4295.69543-.69866a2.69574,2.69574,0,0,1,2.0349-1.438,1.01976,1.01976,0,0,0,.50809-.3272c.59-.57088,1.18891-1.13549,1.74025-1.74262a12.99809,12.99809,0,0,1,2.83086-2.17742,4.98214,4.98214,0,0,0,1.24966-1.15067,2.77385,2.77385,0,0,1,1.23817-.96782,12.7175,12.7175,0,0,0,3.36361-1.80376,4.206,4.206,0,0,1,2.60634-1.01655.658.658,0,0,0,.36221-.05973c1.55778-1.11751,3.67639-.89716,5.17037-2.17239A1.908,1.908,0,0,1,41.801,19.763c1.39434-.33445,2.79787-.63032,4.19547-.95148a7.15575,7.15575,0,0,0,1.41784-.39452,6.28326,6.28326,0,0,1,4.35041-.35581,3.90575,3.90575,0,0,0,3.4257-.444,3.25132,3.25132,0,0,1,2.012-.48915c2.34694.07432,4.69527.12958,7.0389.26444a3.22853,3.22853,0,0,1,1.46076.56984A6.439,6.439,0,0,0,69.03213,19.153a5.93651,5.93651,0,0,1,1.223.1758,3.99222,3.99222,0,0,0,2.89066-.21319,2.11031,2.11031,0,0,1,1.67894.04678,15.82813,15.82813,0,0,0,1.91369.4269c.97051.18465,1.94788.3338,2.91693.52523a8.215,8.215,0,0,0,2.92278.35572,1.095,1.095,0,0,1,1.10381.67123,3.26612,3.26612,0,0,0,2.68151,1.7341,2.29252,2.29252,0,0,1,.967.50406c1.01689.77154,2.008,1.577,3.01717,2.35886a3.21619,3.21619,0,0,0,.73185.45127A5.78835,5.78835,0,0,1,94.379,29.67828a2.028,2.028,0,0,0,1.83594,1.56222,1.02765,1.02765,0,0,1,.95429.83829,1.29068,1.29068,0,0,0,.10163.35569c1.195,1.90215,2.19862,3.95074,3.97626,5.41718a1.82362,1.82362,0,0,1,.82121,1.31116,3.38953,3.38953,0,0,0,1.08311,2.14616A9.89,9.89,0,0,1,104.42,43.2699c.35387.64736.57345,1.36943.93976,2.0084a8.21343,8.21343,0,0,1,1.04485,3.11978,22.94159,22.94159,0,0,0,1.0432,3.41859c.33858,1.14342.68462,2.28927.93125,3.45439A31.36371,31.36371,0,0,1,109.256,64.42429Zm-62.02682,95.5461a7.1428,7.1428,0,0,0,1.08991-.29161,1.15547,1.15547,0,0,0,.72109-1.057c.01186-.31893-.14151-.64357-.47607-.58056a18.19272,18.19272,0,0,0-2.481.63212.50365.50365,0,0,0-.002.95252A6.41635,6.41635,0,0,0,47.22922,159.97039ZM62.33147,20.40857c-.67975.01325-1.14142.3517-1.148.8416a1.23364,1.23364,0,0,0,1.19938,1.14566,1.01008,1.01008,0,0,0,1.03662-1.09794A.937.937,0,0,0,62.33147,20.40857ZM32.84739,135.82584a2.84917,2.84917,0,0,0,.02619.36234c.075.38079.2243.717.68227.71379.39065-.00272.56367-.28763.63105-.62534a2.85916,2.85916,0,0,0,.04889-.72213c-.022-.36916-.07366-.75342-.53244-.84156-.35324-.0679-.68993.25847-.80676.752A3.59731,3.59731,0,0,0,32.84739,135.82584ZM99.63146,82.94691a2.49466,2.49466,0,0,0,.56551.72162c.29629.18452.68193-.1653.82532-.67763a1.75861,1.75861,0,0,0,.06929-.47927c-.00252-.35628.08717-.82118-.35714-.93309-.46-.11586-.73334.26187-.91512.64111A4.46685,4.46685,0,0,0,99.63146,82.94691ZM73.09469,153.33666a.78071.78071,0,0,0,.71271-.85425c-.00381-.44325-.2733-.76161-.6215-.73417a.86761.86761,0,0,0-.67626.98928C72.55,153.10258,72.73858,153.32924,73.09469,153.33666Z"/>
        <path d="M10.19254,127.3386c.4764.08626,1.04505.17691,1.60821.294a2.23072,2.23072,0,0,0,2.42894-.78879c.355-.46223.729-.63707,1.2389-.20242a1.26871,1.26871,0,0,0,1.28623.15275,2.4895,2.4895,0,0,1,.72028-.14072.51574.51574,0,0,1,.48126.77389.784.784,0,0,1-.29092.38527c-1.17526.53525-2.15558,1.49923-3.60063,1.45184a6.57954,6.57954,0,0,0-2.1551.40663,3.6791,3.6791,0,0,1-1.94005.07459c-.56331-.11776-1.14046-.18218-1.6924-.33788-.56518-.15942-.70855-.60529-.33027-1.03215A2.82349,2.82349,0,0,1,10.19254,127.3386Z"/>
        <path d="M21.25438,16.72333c.461.06783.872.10075,1.2696.19189a1.84332,1.84332,0,0,1,1.51941,2.45027c-.0389.159-.08223.317-.1253.47492-.39758,1.458-.53784,1.43251-2.038,1.39078-1.68666-.04691-2.3565-1.10211-2.868-2.41427a.97594.97594,0,0,1,.04835-.807A2.72322,2.72322,0,0,1,21.25438,16.72333Z"/>
        <path d="M30.06258,18.108q.921.48485,1.84251.96862c.10847.05662.22848.09144.3359.14971.61589.33415,1.3506.67236,1.33123,1.45733-.021.85267-.7577,1.31728-1.43874,1.69569a1.59272,1.59272,0,0,1-1.91764-.308c-1.12165-.9308-1.28873-1.52278-.70232-2.88629.16081-.374.37614-.72445.56646-1.08571Z"/>
        <path d="M24.959.00576a1.05953,1.05953,0,0,1,1.16136.52016,1.64445,1.64445,0,0,1-.0619,1.87276A7.24643,7.24643,0,0,1,24.07981,3.818c-.5599.28515-.93947-.09425-.88366-.73046.03937-.44888.1162-.898.11261-1.34646C23.29837.4456,23.67986.02947,24.959.00576Z"/>
        <path d="M18.05042,128.62663a3.39945,3.39945,0,0,1,2.32885.97806c.279.31658.54177.67074.31453,1.10584-.246.47094-.68633.36141-1.08973.24922-.63269-.176-1.26493-.35552-1.88978-.557-.64237-.20715-.902-.57058-.79616-1.05546C17.02426,128.861,17.422,128.60784,18.05042,128.62663Z"/>
        <path d="M29.982,1.50765c.51415.03.75758.28157.74114.76588a1.663,1.663,0,0,1-1.52448,1.48592.91229.91229,0,0,1-.77178-1.06151A1.31971,1.31971,0,0,1,29.982,1.50765Z"/>
        <path d="M30.08,18.09929c-.1691-.36587-.36453-.72252-.4973-1.10113a1.72189,1.72189,0,0,1-.07037-.71883.7749.7749,0,0,1,.81139-.738.6697.6697,0,0,1,.61767.86672,11.39579,11.39579,0,0,1-.87878,1.7Z"/>
        <path d="M1.64479,140.62694c-.04031.488-.67131,1.06152-1.09129.96a.73617.73617,0,0,1-.55256-.84156.83262.83262,0,0,1,.92359-.77547C1.36486,139.9803,1.67485,140.26308,1.64479,140.62694Z"/>
        <path d="M16.47879,120.76042a1.50482,1.50482,0,0,1-.53524-.087,4.68353,4.68353,0,0,1-.58679-.52963c.18321-.14426.35379-.38723.55223-.41263a5.81005,5.81005,0,0,1,1.33556.02093c.12216.01284.33014.2254.31462.31409a.70794.70794,0,0,1-.30573.46078A3.76162,3.76162,0,0,1,16.47879,120.76042Z"/>
        <path d="M11.167,125.38006c-.08888-.10363-.35268-.2761-.4-.49531-.09067-.42.4592-.80229,1.03926-.76188.33991.02372.67407.11706.67061.54493C12.47381,125.04769,11.86274,125.41532,11.167,125.38006Z"/>
        <path d="M3.26023,125.96749c-.23062.141-.40658.32447-.59887.34355a.94033.94033,0,0,1-.54655-.233c-.46586-.3374-.62817-.7928-.39232-1.01833.23382-.2236.748-.14156,1.10408.22A4.11446,4.11446,0,0,1,3.26023,125.96749Z"/>
        <path d="M19.99592,119.93289c-.1199.0871-.28423.30109-.47155.32357-.44307.0532-1.07742-.44966-.95227-.72209a.78854.78854,0,0,1,.55476-.35081A.72494.72494,0,0,1,19.99592,119.93289Z"/>
        <path d="M14.04131,137.04735c-.40931-.03619-.47945-.41924-.42942-.74165.03013-.19414.251-.51542.37444-.51007.43629.01894.46659.41885.42039.735C14.37835,136.72478,14.15512,137.05743,14.04131,137.04735Z"/>
        <path d="M25.17546,5.04033c.202.2416.46726.42817.4429.56207a.65365.65365,0,0,1-.4582.42776c-.14663.01417-.45322-.25335-.44851-.38771C24.7178,5.467,24.96094,5.29977,25.17546,5.04033Z"/>
        <path d="M43.41612,16.65417l-.4696.3994c-.10033-.14964-.29937-.31877-.27468-.44372.02756-.1395.24613-.26767.40876-.33605C43.12275,16.25608,43.26657,16.48015,43.41612,16.65417Z"/>
        <path d="M2.85652,128.18783a2.04714,2.04714,0,0,1-.49248.12839c-.0423-.00063-.14-.20855-.11018-.25292a.36893.36893,0,0,1,.28144-.13886C2.61363,127.92825,2.68667,128.04171,2.85652,128.18783Z"/>
      </g>
    </g>
  </g>
</svg>
