<svg width="307" height="22" viewBox="0 0 307 22" fill="none" xmlns="http://www.w3.org/2000/svg">
<path d="M306.056 20.387L304.613 18.9436L303.17 20.387L304.613 21.8304L306.056 20.387ZM0.169664 20.387L1.61304 21.8303L3.05642 20.387L1.61304 18.9436L0.169664 20.387ZM304.613 20.137L1.61304 20.137L1.61304 20.637L304.613 20.637L304.613 20.137Z" fill="black"/>
<path d="M244.722 12.676C244.461 12.676 244.199 12.6947 243.938 12.732C243.686 12.76 243.49 12.774 243.35 12.774C243.229 12.774 243.14 12.746 243.084 12.69C243.028 12.634 243 12.5313 243 12.382C243 12.158 243.131 11.7753 243.392 11.234C243.653 10.6833 243.938 10.0767 244.246 9.414C244.563 8.75133 244.853 8.06533 245.114 7.356C245.375 6.64667 245.506 6.01667 245.506 5.466C245.506 5.20467 245.431 5.032 245.282 4.948C245.142 4.85467 245.011 4.808 244.89 4.808C244.825 4.808 244.75 4.81733 244.666 4.836C244.591 4.85467 244.521 4.864 244.456 4.864C244.307 4.864 244.19 4.81733 244.106 4.724C244.031 4.62133 243.994 4.50933 243.994 4.388C243.994 4.276 244.031 4.17333 244.106 4.08C244.19 3.98667 244.307 3.94 244.456 3.94C244.577 3.94 244.764 3.94467 245.016 3.954C245.268 3.96333 245.543 3.97733 245.842 3.996C246.141 4.00533 246.444 4.01467 246.752 4.024C247.069 4.03333 247.345 4.038 247.578 4.038C248.007 4.038 248.404 4.024 248.768 3.996C249.132 3.968 249.361 3.954 249.454 3.954C249.631 3.954 249.776 4.01 249.888 4.122C250.009 4.22467 250.07 4.39733 250.07 4.64C250.07 5.07867 250.14 5.62467 250.28 6.278C250.429 6.93133 250.607 7.60333 250.812 8.294C251.027 8.97533 251.26 9.63333 251.512 10.268C251.764 10.8933 251.997 11.3973 252.212 11.78C252.305 11.9387 252.375 12.0647 252.422 12.158C252.478 12.2513 252.506 12.3447 252.506 12.438C252.506 12.5313 252.478 12.6107 252.422 12.676C252.366 12.7413 252.287 12.774 252.184 12.774C252.016 12.774 251.75 12.76 251.386 12.732C251.022 12.6947 250.625 12.676 250.196 12.676C250.019 12.676 249.799 12.6807 249.538 12.69C249.277 12.6993 249.015 12.7133 248.754 12.732C248.502 12.7413 248.278 12.7507 248.082 12.76C247.886 12.7693 247.769 12.774 247.732 12.774C247.583 12.774 247.48 12.732 247.424 12.648C247.368 12.5547 247.34 12.4473 247.34 12.326C247.34 12.2047 247.373 12.102 247.438 12.018C247.513 11.9247 247.611 11.878 247.732 11.878C247.788 11.878 247.853 11.8873 247.928 11.906C248.003 11.9153 248.115 11.92 248.264 11.92C248.423 11.92 248.558 11.8593 248.67 11.738C248.782 11.6073 248.838 11.3973 248.838 11.108C248.838 10.884 248.819 10.7067 248.782 10.576C248.754 10.4453 248.684 10.352 248.572 10.296C248.46 10.2307 248.297 10.1887 248.082 10.17C247.877 10.1513 247.597 10.142 247.242 10.142C246.925 10.142 246.673 10.156 246.486 10.184C246.309 10.2027 246.173 10.2353 246.08 10.282C245.987 10.3287 245.926 10.3893 245.898 10.464C245.87 10.5387 245.856 10.6273 245.856 10.73C245.856 10.9353 245.898 11.1127 245.982 11.262C246.075 11.402 246.173 11.528 246.276 11.64C246.379 11.752 246.472 11.8593 246.556 11.962C246.649 12.0647 246.696 12.1813 246.696 12.312C246.696 12.4333 246.663 12.5407 246.598 12.634C246.542 12.7273 246.449 12.774 246.318 12.774C246.271 12.774 246.183 12.7693 246.052 12.76C245.921 12.7507 245.777 12.7413 245.618 12.732C245.459 12.7133 245.296 12.6993 245.128 12.69C244.969 12.6807 244.834 12.676 244.722 12.676ZM245.968 8.518C245.968 8.798 246.019 8.994 246.122 9.106C246.234 9.218 246.528 9.274 247.004 9.274C247.312 9.274 247.555 9.26 247.732 9.232C247.919 9.204 248.059 9.16667 248.152 9.12C248.245 9.064 248.306 9.00333 248.334 8.938C248.362 8.86333 248.376 8.77933 248.376 8.686C248.376 8.53667 248.357 8.34067 248.32 8.098C248.292 7.846 248.245 7.58 248.18 7.3C248.124 7.02 248.054 6.74467 247.97 6.474C247.886 6.20333 247.797 5.97467 247.704 5.788C247.583 5.55467 247.485 5.40067 247.41 5.326C247.345 5.25133 247.256 5.214 247.144 5.214C246.976 5.214 246.817 5.31667 246.668 5.522C246.528 5.72733 246.407 5.98867 246.304 6.306C246.201 6.62333 246.117 6.978 246.052 7.37C245.996 7.762 245.968 8.14467 245.968 8.518ZM246.668 3.24C248.077 3.24 249.137 3.15133 249.846 2.974C250.565 2.78733 250.924 2.42333 250.924 1.882C250.924 1.62067 250.84 1.41067 250.672 1.252C250.504 1.084 250.271 1 249.972 1C249.636 1 249.328 1.07467 249.048 1.224C248.768 1.37333 248.507 1.54133 248.264 1.728C248.021 1.90533 247.783 2.06867 247.55 2.218C247.317 2.36733 247.079 2.442 246.836 2.442C246.584 2.442 246.388 2.414 246.248 2.358C246.108 2.29267 245.977 2.26 245.856 2.26C245.716 2.26 245.609 2.29733 245.534 2.372C245.469 2.44667 245.436 2.554 245.436 2.694C245.436 2.87133 245.52 3.00667 245.688 3.1C245.865 3.19333 246.192 3.24 246.668 3.24Z" fill="black"/>
<path d="M258.216 5.816C258.057 5.816 257.908 5.83 257.768 5.858C257.637 5.886 257.525 5.95133 257.432 6.054C257.338 6.15667 257.264 6.31067 257.208 6.516C257.161 6.72133 257.138 6.99667 257.138 7.342C257.138 7.64067 257.147 7.93467 257.166 8.224C257.184 8.51333 257.231 8.77 257.306 8.994C257.38 9.20867 257.492 9.38133 257.642 9.512C257.791 9.64267 257.996 9.708 258.258 9.708C258.65 9.708 258.92 9.58667 259.07 9.344C259.219 9.092 259.294 8.56 259.294 7.748C259.294 7.01067 259.205 6.50667 259.028 6.236C258.86 5.956 258.589 5.816 258.216 5.816ZM260.344 14.916C259.868 14.916 259.522 14.8553 259.308 14.734C259.093 14.622 258.986 14.4773 258.986 14.3C258.986 14.2067 259.018 14.1227 259.084 14.048C259.149 13.9827 259.242 13.95 259.364 13.95C259.55 13.95 259.737 13.9967 259.924 14.09C260.12 14.1927 260.32 14.244 260.526 14.244C260.666 14.244 260.764 14.2113 260.82 14.146C260.885 14.0807 260.918 14.0153 260.918 13.95C260.918 13.8007 260.82 13.6747 260.624 13.572C260.437 13.4787 260.171 13.432 259.826 13.432C259.527 13.432 259.219 13.474 258.902 13.558C258.584 13.6513 258.262 13.754 257.936 13.866C257.618 13.978 257.287 14.076 256.942 14.16C256.596 14.2533 256.246 14.3 255.892 14.3C255.257 14.3 254.79 14.1413 254.492 13.824C254.193 13.5067 254.044 13.0073 254.044 12.326C254.044 11.6913 254.202 11.2013 254.52 10.856C254.846 10.5107 255.276 10.338 255.808 10.338H256.116C256.209 10.338 256.279 10.3147 256.326 10.268C256.382 10.212 256.41 10.1513 256.41 10.086C256.41 10.0207 256.382 9.95533 256.326 9.89C256.27 9.82467 256.195 9.78733 256.102 9.778C255.644 9.71267 255.271 9.50733 254.982 9.162C254.702 8.80733 254.562 8.294 254.562 7.622C254.562 6.70733 254.865 6.04467 255.472 5.634C256.088 5.22333 256.923 5.018 257.978 5.018C258.332 5.018 258.673 5.03667 259 5.074C259.326 5.11133 259.583 5.13 259.77 5.13C259.891 5.13 259.97 5.10667 260.008 5.06C260.054 5.01333 260.078 4.95733 260.078 4.892C260.078 4.82667 260.05 4.77533 259.994 4.738C259.938 4.70067 259.844 4.668 259.714 4.64C259.406 4.584 259.154 4.48133 258.958 4.332C258.762 4.17333 258.664 3.93533 258.664 3.618C258.664 3.34733 258.79 3.128 259.042 2.96C259.303 2.78267 259.686 2.694 260.19 2.694C260.712 2.694 261.137 2.848 261.464 3.156C261.8 3.45467 261.968 3.842 261.968 4.318C261.968 4.64467 261.884 4.92 261.716 5.144C261.557 5.368 261.333 5.48 261.044 5.48C260.96 5.48 260.871 5.47533 260.778 5.466C260.694 5.44733 260.642 5.438 260.624 5.438C260.521 5.438 260.451 5.45667 260.414 5.494C260.376 5.53133 260.358 5.58267 260.358 5.648C260.358 5.71333 260.381 5.774 260.428 5.83C260.484 5.87667 260.568 5.91867 260.68 5.956C260.913 6.04 261.156 6.222 261.408 6.502C261.669 6.77267 261.8 7.22533 261.8 7.86C261.8 8.784 261.529 9.47 260.988 9.918C260.456 10.366 259.541 10.59 258.244 10.59C257.348 10.59 256.736 10.6693 256.41 10.828C256.092 10.9773 255.934 11.1873 255.934 11.458C255.934 11.5793 255.971 11.6913 256.046 11.794C256.13 11.8873 256.274 11.934 256.48 11.934C256.713 11.934 256.988 11.8967 257.306 11.822C257.623 11.738 257.95 11.6493 258.286 11.556C258.631 11.4533 258.976 11.3647 259.322 11.29C259.676 11.206 260.003 11.164 260.302 11.164C260.955 11.164 261.445 11.3227 261.772 11.64C262.108 11.948 262.276 12.368 262.276 12.9C262.276 13.572 262.126 14.076 261.828 14.412C261.538 14.748 261.044 14.916 260.344 14.916Z" fill="black"/>
<path d="M272.992 12.774C272.927 12.774 272.736 12.7647 272.418 12.746C272.11 12.7273 271.821 12.718 271.55 12.718C271.382 12.718 271.219 12.7273 271.06 12.746C270.902 12.7647 270.743 12.774 270.584 12.774C270.463 12.774 270.37 12.7413 270.304 12.676C270.239 12.6013 270.206 12.4893 270.206 12.34C270.206 12.1253 270.225 11.8873 270.262 11.626C270.3 11.3647 270.318 11.1033 270.318 10.842C270.318 10.7673 270.295 10.7113 270.248 10.674C270.211 10.6367 270.164 10.618 270.108 10.618C270.043 10.618 269.987 10.6367 269.94 10.674C269.903 10.7113 269.88 10.7673 269.87 10.842C269.749 11.4953 269.455 12.004 268.988 12.368C268.531 12.732 267.934 12.914 267.196 12.914C266.347 12.914 265.764 12.7087 265.446 12.298C265.138 11.878 264.984 11.206 264.984 10.282C264.984 9.84333 265.031 9.30667 265.124 8.672C265.227 8.028 265.278 7.412 265.278 6.824C265.278 6.46933 265.26 6.24067 265.222 6.138C265.185 6.026 265.11 5.97 264.998 5.97C264.914 5.97 264.844 5.97467 264.788 5.984C264.742 5.984 264.7 5.984 264.662 5.984C264.485 5.984 264.368 5.93733 264.312 5.844C264.266 5.75067 264.242 5.65267 264.242 5.55C264.242 5.44733 264.266 5.354 264.312 5.27C264.368 5.186 264.485 5.144 264.662 5.144C264.802 5.144 265.017 5.158 265.306 5.186C265.596 5.20467 265.876 5.214 266.146 5.214C266.333 5.214 266.524 5.20467 266.72 5.186C266.926 5.158 267.131 5.144 267.336 5.144C267.514 5.144 267.654 5.17667 267.756 5.242C267.868 5.30733 267.924 5.47067 267.924 5.732C267.924 5.928 267.91 6.17533 267.882 6.474C267.854 6.77267 267.822 7.104 267.784 7.468C267.747 7.832 267.714 8.224 267.686 8.644C267.658 9.05467 267.644 9.46533 267.644 9.876C267.644 10.296 267.7 10.6087 267.812 10.814C267.934 11.0193 268.144 11.122 268.442 11.122C268.825 11.122 269.138 10.8933 269.38 10.436C269.623 9.96933 269.744 9.32067 269.744 8.49V6.81C269.744 6.53933 269.716 6.334 269.66 6.194C269.604 6.054 269.488 5.984 269.31 5.984C269.273 5.984 269.226 5.98867 269.17 5.998C269.124 6.00733 269.091 6.012 269.072 6.012C268.942 6.012 268.844 5.96533 268.778 5.872C268.722 5.77867 268.694 5.68067 268.694 5.578C268.694 5.42867 268.722 5.32133 268.778 5.256C268.844 5.18133 268.942 5.144 269.072 5.144C269.306 5.144 269.558 5.15333 269.828 5.172C270.099 5.19067 270.351 5.2 270.584 5.2C270.846 5.2 271.102 5.19067 271.354 5.172C271.616 5.15333 271.877 5.144 272.138 5.144C272.269 5.144 272.372 5.172 272.446 5.228C272.521 5.284 272.558 5.37267 272.558 5.494C272.558 5.62467 272.554 5.81133 272.544 6.054C272.535 6.28733 272.526 6.558 272.516 6.866C272.516 7.16467 272.512 7.496 272.502 7.86C272.493 8.224 272.488 8.59733 272.488 8.98C272.488 9.32533 272.488 9.68467 272.488 10.058C272.488 10.422 272.498 10.772 272.516 11.108C272.526 11.388 272.544 11.5933 272.572 11.724C272.6 11.8453 272.689 11.906 272.838 11.906C272.866 11.906 272.894 11.906 272.922 11.906C272.96 11.8967 272.983 11.892 272.992 11.892C273.123 11.892 273.216 11.9387 273.272 12.032C273.338 12.1253 273.37 12.2327 273.37 12.354C273.37 12.4567 273.338 12.5547 273.272 12.648C273.216 12.732 273.123 12.774 272.992 12.774Z" fill="black"/>
<path d="M282.819 9.876C282.819 10.9867 282.572 11.7847 282.077 12.27C281.583 12.746 280.733 12.984 279.529 12.984C279.025 12.984 278.54 12.9233 278.073 12.802C277.616 12.6807 277.21 12.4753 276.855 12.186C276.51 11.8873 276.23 11.4907 276.015 10.996C275.81 10.5013 275.707 9.88067 275.707 9.134C275.707 8.36867 275.805 7.71533 276.001 7.174C276.197 6.63267 276.468 6.19867 276.813 5.872C277.159 5.54533 277.569 5.30733 278.045 5.158C278.531 5.00867 279.053 4.934 279.613 4.934C280.22 4.934 280.724 5.004 281.125 5.144C281.536 5.27467 281.858 5.452 282.091 5.676C282.334 5.9 282.507 6.16133 282.609 6.46C282.712 6.75867 282.764 7.06667 282.764 7.384C282.764 7.70133 282.717 7.986 282.624 8.238C282.54 8.48067 282.371 8.69067 282.119 8.868C281.877 9.036 281.531 9.16667 281.083 9.26C280.645 9.35333 280.071 9.4 279.361 9.4C279.1 9.4 278.885 9.43733 278.717 9.512C278.549 9.57733 278.465 9.71267 278.465 9.918C278.465 10.254 278.61 10.5247 278.899 10.73C279.198 10.926 279.655 11.024 280.271 11.024C280.813 11.024 281.261 10.94 281.615 10.772C281.97 10.5947 282.147 10.296 282.147 9.876C282.147 9.736 282.185 9.638 282.259 9.582C282.334 9.51667 282.409 9.484 282.483 9.484C282.577 9.484 282.656 9.51667 282.722 9.582C282.787 9.638 282.819 9.736 282.819 9.876ZM279.599 5.844C279.133 5.844 278.801 5.998 278.605 6.306C278.409 6.614 278.311 7.09933 278.311 7.762C278.311 7.874 278.316 7.97667 278.326 8.07C278.344 8.16333 278.358 8.238 278.368 8.294C278.405 8.434 278.475 8.532 278.577 8.588C278.68 8.63467 278.797 8.658 278.927 8.658C279.049 8.658 279.198 8.63933 279.375 8.602C279.562 8.56467 279.739 8.48533 279.907 8.364C280.085 8.24267 280.234 8.07467 280.355 7.86C280.477 7.636 280.537 7.342 280.537 6.978C280.537 6.67933 280.472 6.418 280.341 6.194C280.211 5.96067 279.963 5.844 279.599 5.844Z" fill="black"/>
<path d="M288.045 8.952C288.045 9.39067 288.063 9.75 288.101 10.03C288.147 10.31 288.208 10.5247 288.283 10.674C288.357 10.8233 288.451 10.926 288.563 10.982C288.684 11.038 288.815 11.066 288.955 11.066C289.207 11.066 289.412 10.9913 289.571 10.842C289.739 10.6833 289.865 10.4827 289.949 10.24C290.042 9.99733 290.107 9.73133 290.145 9.442C290.182 9.15267 290.201 8.87267 290.201 8.602V6.964C290.201 6.656 290.117 6.432 289.949 6.292C289.79 6.14267 289.566 6.068 289.277 6.068C288.847 6.068 288.535 6.31067 288.339 6.796C288.143 7.28133 288.045 8 288.045 8.952ZM293.407 12.774C293.304 12.774 293.113 12.7693 292.833 12.76C292.562 12.7413 292.324 12.732 292.119 12.732C291.96 12.732 291.801 12.7413 291.643 12.76C291.484 12.7693 291.325 12.774 291.167 12.774C290.961 12.774 290.84 12.648 290.803 12.396C290.775 12.144 290.756 11.6353 290.747 10.87C290.747 10.7767 290.728 10.7113 290.691 10.674C290.653 10.6367 290.602 10.618 290.537 10.618C290.49 10.618 290.443 10.632 290.397 10.66C290.359 10.688 290.336 10.7347 290.327 10.8C290.177 11.416 289.911 11.9247 289.529 12.326C289.155 12.718 288.619 12.914 287.919 12.914C287.443 12.914 287.046 12.8253 286.729 12.648C286.421 12.4613 286.178 12.214 286.001 11.906C285.823 11.5887 285.697 11.22 285.623 10.8C285.548 10.38 285.511 9.93667 285.511 9.47C285.511 8.64867 285.604 7.96267 285.791 7.412C285.977 6.852 286.22 6.404 286.519 6.068C286.827 5.732 287.177 5.494 287.569 5.354C287.97 5.214 288.381 5.144 288.801 5.144C289.174 5.144 289.449 5.16267 289.627 5.2C289.804 5.23733 289.958 5.256 290.089 5.256C290.191 5.256 290.257 5.228 290.285 5.172C290.322 5.116 290.341 5.02733 290.341 4.906C290.341 4.67267 290.299 4.51867 290.215 4.444C290.14 4.36 290.005 4.318 289.809 4.318C289.743 4.318 289.669 4.32267 289.585 4.332C289.501 4.34133 289.431 4.346 289.375 4.346C289.253 4.346 289.169 4.29933 289.123 4.206C289.085 4.10333 289.067 3.996 289.067 3.884C289.067 3.76267 289.099 3.66 289.165 3.576C289.239 3.492 289.347 3.45 289.487 3.45C289.711 3.45 289.977 3.42667 290.285 3.38C290.593 3.33333 290.891 3.28667 291.181 3.24C291.47 3.184 291.736 3.13267 291.979 3.086C292.221 3.03933 292.389 3.016 292.483 3.016C292.604 3.016 292.688 3.04867 292.735 3.114C292.791 3.17933 292.819 3.28667 292.819 3.436C292.819 3.73467 292.819 4.07067 292.819 4.444C292.819 4.81733 292.819 5.20933 292.819 5.62C292.819 6.02133 292.819 6.43667 292.819 6.866C292.819 7.286 292.819 7.69667 292.819 8.098C292.819 8.658 292.819 9.19933 292.819 9.722C292.828 10.2447 292.837 10.7067 292.847 11.108C292.856 11.3973 292.912 11.6027 293.015 11.724C293.117 11.8453 293.248 11.906 293.407 11.906C293.537 11.906 293.635 11.9527 293.701 12.046C293.766 12.1393 293.799 12.242 293.799 12.354C293.799 12.4567 293.766 12.5547 293.701 12.648C293.635 12.732 293.537 12.774 293.407 12.774Z" fill="black"/>
<path d="M299.97 5.004C300.614 5.004 301.132 5.06467 301.524 5.186C301.925 5.30733 302.238 5.48 302.462 5.704C302.686 5.928 302.835 6.19867 302.91 6.516C302.985 6.83333 303.022 7.18333 303.022 7.566C303.022 7.846 303.017 8.13067 303.008 8.42C303.008 8.70933 303.003 8.98467 302.994 9.246C302.985 9.498 302.975 9.722 302.966 9.918C302.966 10.114 302.966 10.2633 302.966 10.366C302.966 10.5993 303.003 10.772 303.078 10.884C303.162 10.996 303.274 11.052 303.414 11.052C303.591 11.052 303.713 10.9913 303.778 10.87C303.843 10.7487 303.876 10.5853 303.876 10.38C303.876 10.212 303.829 10.0207 303.736 9.806C303.652 9.582 303.61 9.39533 303.61 9.246C303.61 9.12467 303.643 9.022 303.708 8.938C303.773 8.84467 303.876 8.798 304.016 8.798C304.221 8.798 304.357 8.89133 304.422 9.078C304.497 9.26467 304.534 9.63333 304.534 10.184C304.534 11.2107 304.385 11.9247 304.086 12.326C303.787 12.718 303.302 12.914 302.63 12.914C302.042 12.914 301.641 12.774 301.426 12.494C301.221 12.2047 301.076 11.8453 300.992 11.416C300.973 11.304 300.945 11.22 300.908 11.164C300.871 11.108 300.815 11.08 300.74 11.08C300.647 11.08 300.581 11.108 300.544 11.164C300.507 11.22 300.483 11.304 300.474 11.416C300.437 11.8173 300.222 12.1673 299.83 12.466C299.447 12.7647 298.878 12.914 298.122 12.914C297.357 12.914 296.815 12.7367 296.498 12.382C296.19 12.018 296.036 11.556 296.036 10.996C296.036 10.604 296.101 10.282 296.232 10.03C296.372 9.778 296.554 9.57267 296.778 9.414C297.002 9.25533 297.268 9.13867 297.576 9.064C297.884 8.98 298.206 8.91467 298.542 8.868C299.018 8.80267 299.396 8.73733 299.676 8.672C299.965 8.60667 300.18 8.518 300.32 8.406C300.469 8.28467 300.563 8.13067 300.6 7.944C300.637 7.748 300.656 7.49133 300.656 7.174C300.656 6.67933 300.521 6.33867 300.25 6.152C299.979 5.956 299.587 5.858 299.074 5.858C298.785 5.858 298.598 5.89533 298.514 5.97C298.439 6.03533 298.402 6.11467 298.402 6.208C298.402 6.27333 298.43 6.334 298.486 6.39C298.542 6.446 298.631 6.488 298.752 6.516C298.939 6.55333 299.097 6.63267 299.228 6.754C299.359 6.866 299.424 7.04333 299.424 7.286C299.424 7.63133 299.289 7.89733 299.018 8.084C298.757 8.26133 298.379 8.35 297.884 8.35C297.371 8.35 296.983 8.24267 296.722 8.028C296.461 7.804 296.33 7.468 296.33 7.02C296.33 6.47867 296.615 6.00733 297.184 5.606C297.753 5.20467 298.682 5.004 299.97 5.004ZM300.278 9.26C299.737 9.26 299.284 9.36267 298.92 9.568C298.556 9.77333 298.374 10.0347 298.374 10.352C298.374 10.6227 298.463 10.8047 298.64 10.898C298.817 10.9913 299.023 11.038 299.256 11.038C299.639 11.038 299.965 10.912 300.236 10.66C300.507 10.408 300.642 10.0813 300.642 9.68C300.642 9.568 300.614 9.47 300.558 9.386C300.511 9.302 300.418 9.26 300.278 9.26Z" fill="black"/>
<path d="M10.3351 7.69099C10.3351 8.26965 10.2791 8.80165 10.1671 9.28699C10.0551 9.76299 9.85905 10.1737 9.57905 10.519C9.29905 10.855 8.91172 11.121 8.41705 11.317C7.93172 11.5037 7.31572 11.597 6.56905 11.597C5.98105 11.597 5.41172 11.5363 4.86105 11.415C4.31038 11.303 3.82505 11.0837 3.40505 10.757C2.99438 10.4303 2.66305 9.97299 2.41105 9.38499C2.15905 8.78765 2.03305 8.01765 2.03305 7.07499C2.03305 6.36565 2.12172 5.72165 2.29905 5.14299C2.48572 4.55499 2.74705 4.05565 3.08305 3.64499C3.42838 3.23432 3.85772 2.91699 4.37105 2.69299C4.88438 2.46899 5.46772 2.35699 6.12105 2.35699C6.54105 2.35699 6.90038 2.41299 7.19905 2.52499C7.50705 2.62765 7.77305 2.74432 7.99705 2.87499C8.23038 3.00565 8.43572 3.12699 8.61305 3.23899C8.79972 3.34165 8.99105 3.39299 9.18705 3.39299C9.28038 3.39299 9.35972 3.36965 9.42505 3.32299C9.49972 3.27632 9.53705 3.19699 9.53705 3.08498C9.53705 3.01965 9.53238 2.95432 9.52305 2.88899C9.51372 2.81432 9.50905 2.76765 9.50905 2.74899C9.50905 2.59965 9.54638 2.49232 9.62105 2.42699C9.69572 2.36165 9.79372 2.32899 9.91505 2.32899C10.0271 2.32899 10.1251 2.36165 10.2091 2.42699C10.2931 2.49232 10.3351 2.59965 10.3351 2.74899C10.3351 2.78632 10.3304 2.86565 10.3211 2.98699C10.3211 3.10832 10.3164 3.24832 10.3071 3.40699C10.2977 3.55632 10.2884 3.71965 10.2791 3.89699C10.2697 4.06499 10.2651 4.21899 10.2651 4.35899C10.2557 4.59232 10.2511 4.83032 10.2511 5.07299C10.2511 5.30632 10.2511 5.51165 10.2511 5.68899C10.2511 5.88499 10.2137 6.04832 10.1391 6.17899C10.0644 6.30965 9.89638 6.37965 9.63505 6.38899C9.07505 6.38899 8.59905 6.26299 8.20705 6.01099C7.82438 5.74965 7.52105 5.33899 7.29705 4.77899C7.08238 4.23765 6.90505 3.84099 6.76505 3.58899C6.63438 3.32765 6.41038 3.19699 6.09305 3.19699C5.71038 3.19699 5.40705 3.42565 5.18305 3.88299C4.96838 4.33099 4.86105 5.04032 4.86105 6.01099C4.86105 7.16832 5.05238 8.06899 5.43505 8.71299C5.81772 9.35699 6.52705 9.67899 7.56305 9.67899C8.14172 9.67899 8.59905 9.56699 8.93505 9.34299C9.27105 9.11899 9.43905 8.78765 9.43905 8.34899C9.43905 8.20899 9.42505 8.07832 9.39705 7.95699C9.36905 7.83565 9.35505 7.73765 9.35505 7.66299C9.35505 7.53232 9.39705 7.42032 9.48105 7.32699C9.56505 7.23365 9.68638 7.18699 9.84505 7.18699C9.98505 7.18699 10.1017 7.22899 10.1951 7.31299C10.2884 7.38765 10.3351 7.51365 10.3351 7.69099Z" fill="black"/>
<path d="M20.7572 7.95699C20.7572 8.47965 20.6872 8.96499 20.5472 9.41299C20.4072 9.85165 20.1785 10.2297 19.8612 10.547C19.5532 10.855 19.1472 11.0977 18.6432 11.275C18.1392 11.443 17.5278 11.527 16.8092 11.527C15.3718 11.527 14.3545 11.205 13.7572 10.561C13.1598 9.90765 12.8612 9.03965 12.8612 7.95699C12.8612 7.17299 12.9592 6.50565 13.1552 5.95499C13.3512 5.39499 13.6218 4.94232 13.9672 4.59699C14.3125 4.25165 14.7278 4.00432 15.2132 3.85499C15.6985 3.69632 16.2305 3.61699 16.8092 3.61699C17.3878 3.61699 17.9198 3.70099 18.4052 3.86899C18.8905 4.02765 19.3058 4.27965 19.6512 4.62499C19.9965 4.97032 20.2672 5.42299 20.4632 5.98299C20.6592 6.53365 20.7572 7.19165 20.7572 7.95699ZM17.8592 7.64899C17.8592 6.94899 17.8358 6.38899 17.7892 5.96899C17.7425 5.54899 17.6725 5.22699 17.5792 5.00299C17.4952 4.76965 17.3878 4.62032 17.2572 4.55499C17.1358 4.48032 16.9958 4.44299 16.8372 4.44299C16.6692 4.44299 16.5152 4.48499 16.3752 4.56899C16.2445 4.64365 16.1325 4.79299 16.0392 5.01699C15.9458 5.24099 15.8758 5.56765 15.8292 5.99699C15.7825 6.41699 15.7592 6.96765 15.7592 7.64899C15.7592 8.73165 15.8478 9.47365 16.0252 9.87499C16.2025 10.267 16.4732 10.463 16.8372 10.463C17.0145 10.463 17.1685 10.4257 17.2992 10.351C17.4298 10.267 17.5325 10.1223 17.6072 9.91699C17.6912 9.70232 17.7518 9.41299 17.7892 9.04899C17.8358 8.67565 17.8592 8.20899 17.8592 7.64899Z" fill="black"/>
<path d="M25.2235 0.984985C25.6435 0.984985 26.0075 1.07365 26.3155 1.25099C26.6328 1.42832 26.7915 1.73165 26.7915 2.16098C26.7915 2.55298 26.6748 2.82832 26.4415 2.98699C26.2082 3.14565 25.8022 3.22965 25.2235 3.23899C24.6448 3.24832 24.2388 3.16899 24.0055 3.00099C23.7722 2.83299 23.6555 2.55298 23.6555 2.16098C23.6555 1.74098 23.8095 1.44232 24.1175 1.26499C24.4348 1.07832 24.8035 0.984985 25.2235 0.984985ZM23.3615 3.75699C23.6228 3.75699 23.8795 3.77099 24.1315 3.79899C24.3928 3.82699 24.6775 3.84099 24.9855 3.84099C25.2375 3.84099 25.4802 3.82699 25.7135 3.79899C25.9562 3.77099 26.1988 3.75699 26.4415 3.75699C26.5628 3.75699 26.6422 3.78965 26.6795 3.85499C26.7262 3.92032 26.7495 4.01832 26.7495 4.14899C26.7495 4.21432 26.7448 4.38232 26.7355 4.65299C26.7262 4.92365 26.7122 5.23632 26.6935 5.59099C26.6842 5.93632 26.6748 6.30032 26.6655 6.68299C26.6562 7.06565 26.6515 7.40165 26.6515 7.69099C26.6515 7.78432 26.6515 7.91032 26.6515 8.06899C26.6515 8.21832 26.6515 8.38632 26.6515 8.57299C26.6515 8.75032 26.6515 8.93699 26.6515 9.13299C26.6608 9.31965 26.6655 9.48765 26.6655 9.63699C26.6748 9.98232 26.6935 10.2203 26.7215 10.351C26.7588 10.4723 26.8242 10.533 26.9175 10.533C26.9828 10.533 27.0435 10.5283 27.0995 10.519C27.1648 10.5097 27.2255 10.505 27.2815 10.505C27.4308 10.505 27.5335 10.5517 27.5895 10.645C27.6548 10.729 27.6875 10.827 27.6875 10.939C27.6875 11.0603 27.6548 11.1677 27.5895 11.261C27.5335 11.345 27.4308 11.387 27.2815 11.387C27.1882 11.387 27.0528 11.387 26.8755 11.387C26.7075 11.3777 26.5208 11.3683 26.3155 11.359C26.1102 11.3497 25.8955 11.345 25.6715 11.345C25.4475 11.3357 25.2422 11.331 25.0555 11.331C24.7662 11.331 24.4955 11.3403 24.2435 11.359C23.9915 11.3777 23.7348 11.387 23.4735 11.387C23.3522 11.387 23.2588 11.3543 23.1935 11.289C23.1282 11.2143 23.0955 11.0977 23.0955 10.939C23.0955 10.7897 23.1282 10.6823 23.1935 10.617C23.2588 10.5423 23.3522 10.505 23.4735 10.505C23.5108 10.505 23.5528 10.5097 23.5995 10.519C23.6462 10.5283 23.6975 10.533 23.7535 10.533C23.8282 10.533 23.8748 10.477 23.8935 10.365C23.9122 10.253 23.9262 10.1223 23.9355 9.97299C23.9542 9.47832 23.9728 8.96032 23.9915 8.41899C24.0102 7.86832 24.0195 7.32232 24.0195 6.78099C24.0195 6.52899 24.0148 6.27232 24.0055 6.01099C23.9962 5.74965 23.9868 5.50699 23.9775 5.28299C23.9682 5.02165 23.9308 4.84899 23.8655 4.76499C23.8095 4.68099 23.7208 4.63899 23.5995 4.63899C23.5435 4.63899 23.4922 4.64365 23.4455 4.65299C23.4082 4.65299 23.3802 4.65299 23.3615 4.65299C23.2308 4.65299 23.1422 4.60632 23.0955 4.51299C23.0488 4.41032 23.0255 4.30299 23.0255 4.19099C23.0255 4.07899 23.0488 3.98099 23.0955 3.89699C23.1422 3.80365 23.2308 3.75699 23.3615 3.75699Z" fill="black"/>
<path d="M42.398 9.58099C42.398 9.92632 42.4213 10.1783 42.468 10.337C42.5147 10.4863 42.6407 10.561 42.846 10.561H43.154C43.266 10.561 43.3453 10.603 43.392 10.687C43.4387 10.7617 43.462 10.8503 43.462 10.953C43.462 11.065 43.434 11.1677 43.378 11.261C43.3313 11.345 43.2473 11.387 43.126 11.387C42.9487 11.387 42.7667 11.3777 42.58 11.359C42.3933 11.3403 42.1927 11.331 41.978 11.331C41.7353 11.331 41.4833 11.3403 41.222 11.359C40.9607 11.3683 40.6947 11.3777 40.424 11.387C40.172 11.387 39.9993 11.3077 39.906 11.149C39.8127 10.981 39.766 10.7477 39.766 10.449C39.766 9.83299 39.7847 9.16565 39.822 8.44699C39.8687 7.72832 39.8827 7.03299 39.864 6.36099C39.8547 6.08099 39.794 5.86632 39.682 5.71699C39.5793 5.55832 39.4113 5.47899 39.178 5.47899C38.8327 5.47899 38.5527 5.57699 38.338 5.77299C38.1327 5.96899 37.988 6.33765 37.904 6.87899C37.8573 7.18699 37.8247 7.49499 37.806 7.80299C37.7967 8.11099 37.792 8.41899 37.792 8.72699C37.792 8.90432 37.792 9.09099 37.792 9.28699C37.792 9.48299 37.7967 9.67432 37.806 9.86099C37.8153 10.1037 37.8387 10.2763 37.876 10.379C37.9227 10.4817 38.0207 10.533 38.17 10.533C38.2447 10.533 38.3193 10.5283 38.394 10.519C38.478 10.5097 38.5387 10.505 38.576 10.505C38.7533 10.505 38.8653 10.5517 38.912 10.645C38.968 10.729 38.996 10.8317 38.996 10.953C38.996 11.1023 38.954 11.2143 38.87 11.289C38.7953 11.3543 38.6973 11.387 38.576 11.387C38.4547 11.387 38.296 11.387 38.1 11.387C37.904 11.3777 37.694 11.3683 37.47 11.359C37.2553 11.3497 37.036 11.345 36.812 11.345C36.588 11.3357 36.3873 11.331 36.21 11.331C35.9953 11.331 35.7573 11.3403 35.496 11.359C35.244 11.3777 35.034 11.387 34.866 11.387C34.7727 11.387 34.6933 11.359 34.628 11.303C34.572 11.2377 34.544 11.1303 34.544 10.981C34.544 10.897 34.5673 10.8083 34.614 10.715C34.6607 10.6123 34.7447 10.561 34.866 10.561C34.9873 10.561 35.0667 10.4957 35.104 10.365C35.1413 10.225 35.1647 10.0103 35.174 9.72099C35.1833 9.51565 35.1927 9.31965 35.202 9.13299C35.2113 8.93699 35.216 8.72699 35.216 8.50299C35.216 8.12965 35.2113 7.75165 35.202 7.36899C35.1927 6.98632 35.1833 6.60832 35.174 6.23499C35.1647 5.94565 35.0947 5.74499 34.964 5.63299C34.8333 5.51165 34.6653 5.45098 34.46 5.45098C34.1147 5.45098 33.8393 5.57699 33.634 5.82899C33.4287 6.07165 33.298 6.52898 33.242 7.20098C33.2233 7.46232 33.2093 7.72365 33.2 7.98499C33.2 8.23699 33.2 8.48899 33.2 8.74099C33.2 8.90899 33.2 9.07232 33.2 9.23099C33.2093 9.38965 33.2187 9.55299 33.228 9.72099C33.2373 10.0103 33.27 10.225 33.326 10.365C33.3913 10.4957 33.536 10.561 33.76 10.561C33.9093 10.561 34.012 10.5983 34.068 10.673C34.124 10.7477 34.152 10.8503 34.152 10.981C34.152 11.1303 34.11 11.2377 34.026 11.303C33.942 11.359 33.8533 11.387 33.76 11.387C33.676 11.387 33.5453 11.387 33.368 11.387C33.2 11.3777 33.0087 11.3683 32.794 11.359C32.5793 11.3497 32.3553 11.345 32.122 11.345C31.8887 11.3357 31.6787 11.331 31.492 11.331C31.2587 11.3217 31.002 11.331 30.722 11.359C30.442 11.3777 30.2273 11.387 30.078 11.387C29.9287 11.387 29.8167 11.3403 29.742 11.247C29.6767 11.1537 29.644 11.0557 29.644 10.953C29.644 10.841 29.6767 10.743 29.742 10.659C29.8073 10.5657 29.9053 10.519 30.036 10.519C30.0733 10.519 30.1153 10.5237 30.162 10.533C30.2087 10.5423 30.2507 10.547 30.288 10.547C30.3813 10.547 30.4373 10.4863 30.456 10.365C30.484 10.2343 30.5027 10.1083 30.512 9.98699C30.5213 9.50165 30.526 8.99765 30.526 8.47499C30.5353 7.94299 30.54 7.43432 30.54 6.94899C30.54 6.64099 30.5353 6.35165 30.526 6.08099C30.526 5.80099 30.5213 5.54899 30.512 5.32499C30.5027 5.03565 30.4793 4.84899 30.442 4.76499C30.4047 4.68099 30.3253 4.63899 30.204 4.63899C30.1387 4.63899 30.0873 4.64365 30.05 4.65299C30.0127 4.65299 29.98 4.65299 29.952 4.65299C29.8027 4.65299 29.7047 4.60632 29.658 4.51299C29.6207 4.41032 29.602 4.30299 29.602 4.19099C29.602 4.07899 29.6347 3.98099 29.7 3.89699C29.7747 3.80365 29.8913 3.75699 30.05 3.75699C30.2273 3.75699 30.4327 3.76632 30.666 3.78499C30.8993 3.80365 31.1047 3.81299 31.282 3.81299C31.4687 3.81299 31.6413 3.80365 31.8 3.78499C31.968 3.76632 32.136 3.75699 32.304 3.75699C32.4813 3.75699 32.5933 3.80365 32.64 3.89699C32.696 3.99032 32.724 4.11632 32.724 4.27499C32.724 4.46165 32.71 4.66699 32.682 4.89099C32.654 5.11499 32.64 5.36699 32.64 5.64699C32.64 5.72165 32.6587 5.77765 32.696 5.81499C32.7427 5.85232 32.794 5.87099 32.85 5.87099C32.9247 5.87099 32.9807 5.85699 33.018 5.82899C33.0647 5.80099 33.0927 5.76365 33.102 5.71699C33.3073 4.87699 33.6107 4.32165 34.012 4.05099C34.4227 3.77099 34.908 3.63099 35.468 3.63099C36.1213 3.63099 36.5693 3.80832 36.812 4.16299C37.0547 4.50832 37.2087 5.00299 37.274 5.64699C37.2833 5.72165 37.3113 5.77765 37.358 5.81499C37.4047 5.85232 37.4513 5.87099 37.498 5.87099C37.5633 5.87099 37.6147 5.85232 37.652 5.81499C37.6987 5.77765 37.7313 5.72632 37.75 5.66099C37.9087 5.04499 38.1467 4.55499 38.464 4.19099C38.7907 3.82699 39.36 3.64499 40.172 3.64499C41.0587 3.64499 41.6747 3.85499 42.02 4.27499C42.3653 4.68565 42.538 5.34365 42.538 6.24899C42.538 6.45432 42.5287 6.70165 42.51 6.99099C42.5007 7.28032 42.4867 7.57899 42.468 7.88699C42.4493 8.19499 42.4307 8.49832 42.412 8.79699C42.4027 9.09565 42.398 9.35699 42.398 9.58099Z" fill="black"/>
<path d="M49.8724 10.407C50.0964 10.407 50.283 10.3697 50.4324 10.295C50.5817 10.2203 50.6984 10.0757 50.7824 9.86099C50.8757 9.64632 50.941 9.33832 50.9784 8.93699C51.025 8.53565 51.0484 8.01299 51.0484 7.36899C51.0484 6.65032 50.9877 6.13232 50.8664 5.81499C50.7544 5.48832 50.5117 5.32499 50.1384 5.32499C49.737 5.32499 49.4244 5.52565 49.2004 5.92699C48.9764 6.32832 48.8644 6.96299 48.8644 7.83099V8.99299C48.8644 9.39432 48.9297 9.73032 49.0604 10.001C49.2004 10.2717 49.471 10.407 49.8724 10.407ZM48.7384 5.67499C48.897 5.00299 49.163 4.49432 49.5364 4.14899C49.9097 3.79432 50.5117 3.61699 51.3424 3.61699C52.257 3.61699 52.8824 3.92032 53.2184 4.52699C53.5544 5.12432 53.7224 6.11365 53.7224 7.49499C53.7224 8.90432 53.4564 9.91699 52.9244 10.533C52.4017 11.1397 51.683 11.443 50.7684 11.443C50.311 11.443 49.905 11.387 49.5504 11.275C49.205 11.1537 48.9017 11.023 48.6404 10.883C48.379 10.7337 48.1504 10.603 47.9544 10.491C47.7677 10.3697 47.5997 10.309 47.4504 10.309C47.301 10.309 47.1844 10.3417 47.1004 10.407C47.0164 10.463 46.9744 10.5423 46.9744 10.645C46.9744 10.7197 46.979 10.7943 46.9884 10.869C46.9977 10.9437 47.0024 10.9997 47.0024 11.037C47.0024 11.1677 46.9604 11.2657 46.8764 11.331C46.7924 11.387 46.6757 11.415 46.5264 11.415C46.377 11.415 46.2604 11.3777 46.1764 11.303C46.1017 11.2283 46.0644 11.1397 46.0644 11.037C46.0644 10.9997 46.069 10.8503 46.0784 10.589C46.097 10.3277 46.111 10.001 46.1204 9.60899C46.1297 9.20765 46.139 8.75032 46.1484 8.23699C46.167 7.72365 46.1764 7.20099 46.1764 6.66899C46.1764 6.19299 46.1717 5.68899 46.1624 5.15699C46.1624 4.62499 46.153 4.09299 46.1344 3.56099C46.125 3.35565 46.097 3.20165 46.0504 3.09899C46.013 2.99632 45.929 2.94499 45.7984 2.94499C45.7704 2.94499 45.7284 2.94965 45.6724 2.95898C45.6164 2.95898 45.5697 2.95898 45.5324 2.95898C45.411 2.95898 45.3177 2.92632 45.2524 2.86099C45.187 2.79565 45.1544 2.67899 45.1544 2.51099C45.1544 2.35232 45.1964 2.24032 45.2804 2.17498C45.3644 2.10032 45.467 2.06299 45.5884 2.06299C46.251 2.06299 46.8017 1.99299 47.2404 1.85298C47.6884 1.70365 48.099 1.62899 48.4724 1.62899C48.6497 1.62899 48.7664 1.68032 48.8224 1.78299C48.8877 1.87632 48.9204 2.01632 48.9204 2.20299C48.9204 2.39899 48.8877 2.62765 48.8224 2.88899C48.757 3.14099 48.6824 3.41632 48.5984 3.71499C48.5237 4.01365 48.4537 4.32632 48.3884 4.65299C48.323 4.97965 48.2904 5.30165 48.2904 5.61899C48.2904 5.69365 48.309 5.75432 48.3464 5.80099C48.3837 5.84765 48.4397 5.87099 48.5144 5.87099C48.5984 5.87099 48.6544 5.85232 48.6824 5.81499C48.7104 5.77765 48.729 5.73099 48.7384 5.67499Z" fill="black"/>
<path d="M57.0351 9.70699C57.0538 9.33365 57.0678 8.96965 57.0771 8.61499C57.0864 8.25099 57.0911 7.89632 57.0911 7.55099C57.0911 7.13099 57.0864 6.72965 57.0771 6.34699C57.0678 5.96432 57.0538 5.61432 57.0351 5.29699C57.0258 5.00765 57.0024 4.82099 56.9651 4.73699C56.9371 4.65299 56.8718 4.61099 56.7691 4.61099C56.7038 4.61099 56.6524 4.61565 56.6151 4.62499C56.5778 4.62499 56.5451 4.62499 56.5171 4.62499C56.3584 4.62499 56.2558 4.57832 56.2091 4.48499C56.1624 4.39165 56.1391 4.29365 56.1391 4.19099C56.1391 4.07899 56.1624 3.98099 56.2091 3.89699C56.2558 3.80365 56.3584 3.75699 56.5171 3.75699C56.7224 3.75699 56.9371 3.76632 57.1611 3.78499C57.3944 3.79432 57.6418 3.79899 57.9031 3.79899C58.0618 3.79899 58.2158 3.79432 58.3651 3.78499C58.5144 3.76632 58.6731 3.75699 58.8411 3.75699C59.0184 3.75699 59.1304 3.80832 59.1771 3.91098C59.2238 4.00432 59.2471 4.12099 59.2471 4.26099C59.2471 4.57832 59.2144 4.87699 59.1491 5.15699C59.0838 5.43699 59.0511 5.74499 59.0511 6.08099C59.0511 6.21165 59.0698 6.30499 59.1071 6.36099C59.1444 6.41699 59.1911 6.44499 59.2471 6.44499C59.3404 6.44499 59.4011 6.40765 59.4291 6.33298C59.4571 6.25832 59.5038 6.07632 59.5691 5.78699C59.7371 5.09632 59.9798 4.56432 60.2971 4.19099C60.6144 3.80832 61.0018 3.61699 61.4591 3.61699C61.7951 3.61699 62.0704 3.72432 62.2851 3.93899C62.5091 4.14432 62.6211 4.52699 62.6211 5.08699C62.6211 5.56299 62.5464 5.97832 62.3971 6.33298C62.2478 6.67832 61.9678 6.85099 61.5571 6.85099C61.3238 6.85099 61.1278 6.81365 60.9691 6.73899C60.8104 6.66432 60.6938 6.49632 60.6191 6.23499C60.5818 6.13232 60.5491 6.05299 60.5211 5.99699C60.5024 5.93165 60.4511 5.89899 60.3671 5.89899C60.1991 5.89899 60.0358 6.15099 59.8771 6.65499C59.7184 7.14965 59.6391 7.95232 59.6391 9.06299C59.6391 9.70699 59.6811 10.113 59.7651 10.281C59.8491 10.449 60.0124 10.533 60.2551 10.533C60.4791 10.533 60.6424 10.5237 60.7451 10.505C60.8478 10.4863 60.9178 10.477 60.9551 10.477C61.0858 10.477 61.1931 10.5143 61.2771 10.589C61.3611 10.6543 61.4031 10.7663 61.4031 10.925C61.4031 11.0463 61.3611 11.1583 61.2771 11.261C61.1931 11.3543 61.0858 11.401 60.9551 11.401C60.8431 11.401 60.6798 11.3963 60.4651 11.387C60.2504 11.387 60.0171 11.387 59.7651 11.387C59.5131 11.3777 59.2564 11.373 58.9951 11.373C58.7431 11.3637 58.5238 11.359 58.3371 11.359C58.0198 11.359 57.7071 11.3637 57.3991 11.373C57.1004 11.373 56.8204 11.3777 56.5591 11.387C56.4284 11.387 56.3304 11.3403 56.2651 11.247C56.2091 11.1537 56.1811 11.051 56.1811 10.939C56.1811 10.827 56.2091 10.729 56.2651 10.645C56.3304 10.5517 56.4284 10.505 56.5591 10.505C56.5684 10.505 56.6011 10.5097 56.6571 10.519C56.7224 10.5283 56.7598 10.533 56.7691 10.533C56.8718 10.533 56.9371 10.4443 56.9651 10.267C57.0024 10.0803 57.0258 9.89365 57.0351 9.70699Z" fill="black"/>
<path d="M68.6099 3.61699C69.2539 3.61699 69.7719 3.67765 70.1639 3.79899C70.5653 3.92032 70.8779 4.09299 71.1019 4.31699C71.3259 4.54099 71.4753 4.81165 71.5499 5.12899C71.6246 5.44632 71.6619 5.79632 71.6619 6.17899C71.6619 6.45899 71.6573 6.74365 71.6479 7.03299C71.6479 7.32232 71.6433 7.59765 71.6339 7.85899C71.6246 8.11099 71.6153 8.33499 71.6059 8.53099C71.6059 8.72699 71.6059 8.87632 71.6059 8.97899C71.6059 9.21232 71.6433 9.38499 71.7179 9.49699C71.8019 9.60899 71.9139 9.66499 72.0539 9.66499C72.2313 9.66499 72.3526 9.60432 72.4179 9.48299C72.4833 9.36165 72.5159 9.19832 72.5159 8.99299C72.5159 8.82499 72.4693 8.63365 72.3759 8.41899C72.2919 8.19499 72.2499 8.00832 72.2499 7.85899C72.2499 7.73765 72.2826 7.63499 72.3479 7.55099C72.4133 7.45765 72.5159 7.41099 72.6559 7.41099C72.8613 7.41099 72.9966 7.50432 73.0619 7.69099C73.1366 7.87765 73.1739 8.24632 73.1739 8.79699C73.1739 9.82365 73.0246 10.5377 72.7259 10.939C72.4273 11.331 71.9419 11.527 71.2699 11.527C70.6819 11.527 70.2806 11.387 70.0659 11.107C69.8606 10.8177 69.7159 10.4583 69.6319 10.029C69.6133 9.91699 69.5853 9.83299 69.5479 9.77699C69.5106 9.72099 69.4546 9.69299 69.3799 9.69299C69.2866 9.69299 69.2213 9.72099 69.1839 9.77699C69.1466 9.83299 69.1233 9.91699 69.1139 10.029C69.0766 10.4303 68.8619 10.7803 68.4699 11.079C68.0873 11.3777 67.5179 11.527 66.7619 11.527C65.9966 11.527 65.4553 11.3497 65.1379 10.995C64.8299 10.631 64.6759 10.169 64.6759 9.60899C64.6759 9.21699 64.7413 8.89499 64.8719 8.64299C65.0119 8.39099 65.1939 8.18565 65.4179 8.02699C65.6419 7.86832 65.9079 7.75165 66.2159 7.67699C66.5239 7.59299 66.8459 7.52765 67.1819 7.48099C67.6579 7.41565 68.0359 7.35032 68.3159 7.28499C68.6053 7.21965 68.8199 7.13099 68.9599 7.01899C69.1093 6.89765 69.2026 6.74365 69.2399 6.55699C69.2773 6.36099 69.2959 6.10432 69.2959 5.78699C69.2959 5.29232 69.1606 4.95165 68.8899 4.76499C68.6193 4.56899 68.2273 4.47099 67.7139 4.47099C67.4246 4.47099 67.2379 4.50832 67.1539 4.58298C67.0793 4.64832 67.0419 4.72765 67.0419 4.82099C67.0419 4.88632 67.0699 4.94699 67.1259 5.00299C67.1819 5.05899 67.2706 5.10099 67.3919 5.12899C67.5786 5.16632 67.7373 5.24565 67.8679 5.36699C67.9986 5.47899 68.0639 5.65632 68.0639 5.89899C68.0639 6.24432 67.9286 6.51032 67.6579 6.69699C67.3966 6.87432 67.0186 6.96299 66.5239 6.96299C66.0106 6.96299 65.6233 6.85565 65.3619 6.64099C65.1006 6.41699 64.9699 6.08099 64.9699 5.63299C64.9699 5.09165 65.2546 4.62032 65.8239 4.21899C66.3933 3.81765 67.3219 3.61699 68.6099 3.61699ZM68.9179 7.87299C68.3766 7.87299 67.9239 7.97565 67.5599 8.18099C67.1959 8.38632 67.0139 8.64765 67.0139 8.96499C67.0139 9.23565 67.1026 9.41765 67.2799 9.51099C67.4573 9.60432 67.6626 9.65099 67.8959 9.65099C68.2786 9.65099 68.6053 9.52499 68.8759 9.27299C69.1466 9.02099 69.2819 8.69432 69.2819 8.29299C69.2819 8.18099 69.2539 8.08299 69.1979 7.99899C69.1513 7.91499 69.0579 7.87299 68.9179 7.87299Z" fill="black"/>
</svg>
