<svg id="Layer_1" data-name="Layer 1" xmlns="http://www.w3.org/2000/svg" viewBox="0 0 654.02394 366.91676">
  <defs>
    <style>
      .cls-1 {
        fill: none;
        stroke: #000;
        stroke-miterlimit: 10;
      }

      .cls-2 {
        font-size: 12px;
      }

      .cls-2, .cls-6 {
        font-family: HelveticaNeue, Helvetica Neue;
      }

      .cls-3 {
        letter-spacing: -0.01807em;
      }

      .cls-4 {
        letter-spacing: 0.00008em;
      }

      .cls-5 {
        letter-spacing: -0.01799em;
      }

      .cls-6 {
        font-size: 9.46866px;
      }
    </style>
  </defs>
  <circle class="cls-1" cx="560.0333" cy="229.02171" r="82.41712"/>
  <text class="cls-2" transform="translate(543.71248 220.80675)">Adobe<tspan x="-5.11133" y="14.40039">Indesign</tspan></text>
  <circle class="cls-1" cx="249.84062" cy="115.17338" r="79.98106"/>
  <text class="cls-2" transform="translate(232.16934 107.43569)">Adobe<tspan x="-5.99316" y="14.40039">Ilustrator</tspan></text>
  <circle class="cls-1" cx="453.58579" cy="117.80972" r="68.81376"/>
  <text class="cls-2" transform="translate(435.91657 111.15278)">Adobe<tspan x="-11.66992" y="14.40039">Photoshop</tspan></text>
  <circle class="cls-1" cx="140.33141" cy="288.08621" r="56.58903"/>
  <text class="cls-2" transform="translate(122.66003 282.61051)">Adobe<tspan x="-16.67383" y="14.40039">P</tspan><tspan class="cls-3" x="-8.89746" y="14.40039">r</tspan><tspan x="-5.11816" y="14.40039">emie</tspan><tspan class="cls-3" x="20.66992" y="14.40039">r</tspan><tspan class="cls-4" x="24.44922" y="14.40039">e p</tspan><tspan class="cls-3" x="41.3457" y="14.40039">r</tspan><tspan class="cls-4" x="45.125" y="14.40039">o</tspan></text>
  <circle class="cls-1" cx="106.92174" cy="98.86733" r="59.23724"/>
  <text class="cls-2" transform="translate(89.25241 93.13801)">Adobe<tspan x="-12.99512" y="14.40039">Afte</tspan><tspan class="cls-3" x="8.55664" y="14.40039">r</tspan><tspan class="cls-4" x="12.33594" y="14.40039">e</tspan><tspan class="cls-5" x="18.78027" y="14.40039">f</tspan><tspan x="22.11621" y="14.40039">fects</tspan></text>
  <circle class="cls-1" cx="75.31861" cy="194.08764" r="54.96158"/>
  <text class="cls-2" transform="translate(54.75746 189.7708)">Cinema<tspan x="11.33398" y="14.40039">4D </tspan></text>
  <circle class="cls-1" cx="263.26479" cy="261.71133" r="66.55689"/>
  <text class="cls-2" transform="translate(248.97751 266.94103)">Figma </text>
  <circle class="cls-1" cx="379.82058" cy="297.20128" r="49.9989"/>
  <text class="cls-2" transform="translate(355.22226 301.1303)">Javascript</text>
  <circle class="cls-1" cx="464.54401" cy="297.20128" r="32.70453"/>
  <text class="cls-2" transform="translate(452.43578 299.90897)">CSS</text>
  <circle class="cls-1" cx="168.13786" cy="197.83244" r="33.66474"/>
  <text class="cls-2" transform="translate(152.79142 202.47625)">HTML</text>
  <circle class="cls-1" cx="358.12199" cy="61.65972" r="38.97073"/>
  <text class="cls-2" transform="translate(330.65262 64.72157)">P<tspan class="cls-3" x="7.77637" y="0">r</tspan><tspan x="11.55566" y="0">ocessing</tspan></text>
  <circle class="cls-1" cx="438.65434" cy="226.23405" r="35.47729"/>
  <text class="cls-6" transform="translate(429.10121 229.02153)">PHP</text>
  <circle class="cls-1" cx="358.12199" cy="192.38014" r="48.48376"/>
  <text class="cls-2" transform="translate(342.56437 196.3322)">Rhino</text>
  <circle class="cls-1" cx="563.93701" cy="105.00609" r="39.0761"/>
  <text class="cls-2" transform="translate(543.15968 108.07674)">Blender</text>
</svg>
